<?xml version="1.0" encoding="utf-8"?>
<svg version="1.1" baseProfile="full" width="800" height="600" xmlns="http://www.w3.org/2000/svg">
<clipPath>
<rect x="0" y="0" width="800" height="600" fill="rgb(0,0,0)" />
</clipPath>
<text x="330" y="34" fill="rgb(0,0,0)">
Average Temperature</text>
<line x1="126" y1="50" x2="126" y2="550" stroke="rgb(200,200,200)" />
<line x1="191" y1="50" x2="191" y2="550" stroke="rgb(200,200,200)" />
<line x1="256" y1="50" x2="256" y2="550" stroke="rgb(200,200,200)" />
<line x1="321" y1="50" x2="321" y2="550" stroke="rgb(200,200,200)" />
<line x1="386" y1="50" x2="386" y2="550" stroke="rgb(200,200,200)" />
<line x1="451" y1="50" x2="451" y2="550" stroke="rgb(200,200,200)" />
<line x1="516" y1="50" x2="516" y2="550" stroke="rgb(200,200,200)" />
<line x1="581" y1="50" x2="581" y2="550" stroke="rgb(200,200,200)" />
<line x1="646" y1="50" x2="646" y2="550" stroke="rgb(200,200,200)" />
<line x1="711" y1="50" x2="711" y2="550" stroke="rgb(200,200,200)" />
<line x1="100" y1="550" x2="750" y2="550" stroke="rgb(200,200,200)" />
<line x1="100" y1="500" x2="750" y2="500" stroke="rgb(200,200,200)" />
<line x1="100" y1="450" x2="750" y2="450" stroke="rgb(200,200,200)" />
<line x1="100" y1="400" x2="750" y2="400" stroke="rgb(200,200,200)" />
<line x1="100" y1="350" x2="750" y2="350" stroke="rgb(200,200,200)" />
<line x1="100" y1="300" x2="750" y2="300" stroke="rgb(200,200,200)" />
<line x1="100" y1="250" x2="750" y2="250" stroke="rgb(200,200,200)" />
<line x1="100" y1="200" x2="750" y2="200" stroke="rgb(200,200,200)" />
<line x1="100" y1="150" x2="750" y2="150" stroke="rgb(200,200,200)" />
<line x1="100" y1="100" x2="750" y2="100" stroke="rgb(200,200,200)" />
<line x1="100" y1="50" x2="750" y2="50" stroke="rgb(200,200,200)" />
<line x1="100" y1="550" x2="750" y2="550" stroke="rgb(0,0,0)" />
<line x1="100" y1="550" x2="100" y2="554" stroke="rgb(0,0,0)" />
<line x1="113" y1="550" x2="113" y2="554" stroke="rgb(0,0,0)" />
<text x="126" y="578" fill="rgb(0,0,0)">
1970</text>
<line x1="126" y1="550" x2="126" y2="558" stroke="rgb(0,0,0)" />
<line x1="139" y1="550" x2="139" y2="554" stroke="rgb(0,0,0)" />
<line x1="152" y1="550" x2="152" y2="554" stroke="rgb(0,0,0)" />
<line x1="165" y1="550" x2="165" y2="554" stroke="rgb(0,0,0)" />
<line x1="178" y1="550" x2="178" y2="554" stroke="rgb(0,0,0)" />
<text x="191" y="578" fill="rgb(0,0,0)">
1975</text>
<line x1="191" y1="550" x2="191" y2="558" stroke="rgb(0,0,0)" />
<line x1="204" y1="550" x2="204" y2="554" stroke="rgb(0,0,0)" />
<line x1="217" y1="550" x2="217" y2="554" stroke="rgb(0,0,0)" />
<line x1="230" y1="550" x2="230" y2="554" stroke="rgb(0,0,0)" />
<line x1="243" y1="550" x2="243" y2="554" stroke="rgb(0,0,0)" />
<text x="256" y="578" fill="rgb(0,0,0)">
1980</text>
<line x1="256" y1="550" x2="256" y2="558" stroke="rgb(0,0,0)" />
<line x1="269" y1="550" x2="269" y2="554" stroke="rgb(0,0,0)" />
<line x1="282" y1="550" x2="282" y2="554" stroke="rgb(0,0,0)" />
<line x1="295" y1="550" x2="295" y2="554" stroke="rgb(0,0,0)" />
<line x1="308" y1="550" x2="308" y2="554" stroke="rgb(0,0,0)" />
<text x="321" y="578" fill="rgb(0,0,0)">
1985</text>
<line x1="321" y1="550" x2="321" y2="558" stroke="rgb(0,0,0)" />
<line x1="334" y1="550" x2="334" y2="554" stroke="rgb(0,0,0)" />
<line x1="347" y1="550" x2="347" y2="554" stroke="rgb(0,0,0)" />
<line x1="360" y1="550" x2="360" y2="554" stroke="rgb(0,0,0)" />
<line x1="373" y1="550" x2="373" y2="554" stroke="rgb(0,0,0)" />
<text x="386" y="578" fill="rgb(0,0,0)">
1990</text>
<line x1="386" y1="550" x2="386" y2="558" stroke="rgb(0,0,0)" />
<line x1="399" y1="550" x2="399" y2="554" stroke="rgb(0,0,0)" />
<line x1="412" y1="550" x2="412" y2="554" stroke="rgb(0,0,0)" />
<line x1="425" y1="550" x2="425" y2="554" stroke="rgb(0,0,0)" />
<line x1="438" y1="550" x2="438" y2="554" stroke="rgb(0,0,0)" />
<text x="451" y="578" fill="rgb(0,0,0)">
1995</text>
<line x1="451" y1="550" x2="451" y2="558" stroke="rgb(0,0,0)" />
<line x1="464" y1="550" x2="464" y2="554" stroke="rgb(0,0,0)" />
<line x1="477" y1="550" x2="477" y2="554" stroke="rgb(0,0,0)" />
<line x1="490" y1="550" x2="490" y2="554" stroke="rgb(0,0,0)" />
<line x1="503" y1="550" x2="503" y2="554" stroke="rgb(0,0,0)" />
<text x="516" y="578" fill="rgb(0,0,0)">
2000</text>
<line x1="516" y1="550" x2="516" y2="558" stroke="rgb(0,0,0)" />
<line x1="529" y1="550" x2="529" y2="554" stroke="rgb(0,0,0)" />
<line x1="542" y1="550" x2="542" y2="554" stroke="rgb(0,0,0)" />
<line x1="555" y1="550" x2="555" y2="554" stroke="rgb(0,0,0)" />
<line x1="568" y1="550" x2="568" y2="554" stroke="rgb(0,0,0)" />
<text x="581" y="578" fill="rgb(0,0,0)">
2005</text>
<line x1="581" y1="550" x2="581" y2="558" stroke="rgb(0,0,0)" />
<line x1="594" y1="550" x2="594" y2="554" stroke="rgb(0,0,0)" />
<line x1="607" y1="550" x2="607" y2="554" stroke="rgb(0,0,0)" />
<line x1="620" y1="550" x2="620" y2="554" stroke="rgb(0,0,0)" />
<line x1="633" y1="550" x2="633" y2="554" stroke="rgb(0,0,0)" />
<text x="646" y="578" fill="rgb(0,0,0)">
2010</text>
<line x1="646" y1="550" x2="646" y2="558" stroke="rgb(0,0,0)" />
<line x1="659" y1="550" x2="659" y2="554" stroke="rgb(0,0,0)" />
<line x1="672" y1="550" x2="672" y2="554" stroke="rgb(0,0,0)" />
<line x1="685" y1="550" x2="685" y2="554" stroke="rgb(0,0,0)" />
<line x1="698" y1="550" x2="698" y2="554" stroke="rgb(0,0,0)" />
<text x="711" y="578" fill="rgb(0,0,0)">
2015</text>
<line x1="711" y1="550" x2="711" y2="558" stroke="rgb(0,0,0)" />
<line x1="724" y1="550" x2="724" y2="554" stroke="rgb(0,0,0)" />
<line x1="737" y1="550" x2="737" y2="554" stroke="rgb(0,0,0)" />
<line x1="750" y1="550" x2="750" y2="554" stroke="rgb(0,0,0)" />
<text x="400" y="594" fill="rgb(0,0,0)">
Year</text>
<line x1="100" y1="50" x2="100" y2="550" stroke="rgb(0,0,0)" />
<text x="58" y="558" fill="rgb(0,0,0)">
0</text>
<line x1="100" y1="550" x2="92" y2="550" stroke="rgb(0,0,0)" />
<line x1="100" y1="540" x2="96" y2="540" stroke="rgb(0,0,0)" />
<line x1="100" y1="530" x2="96" y2="530" stroke="rgb(0,0,0)" />
<line x1="100" y1="520" x2="96" y2="520" stroke="rgb(0,0,0)" />
<line x1="100" y1="510" x2="96" y2="510" stroke="rgb(0,0,0)" />
<text x="53" y="508" fill="rgb(0,0,0)">
10</text>
<line x1="100" y1="500" x2="92" y2="500" stroke="rgb(0,0,0)" />
<line x1="100" y1="490" x2="96" y2="490" stroke="rgb(0,0,0)" />
<line x1="100" y1="480" x2="96" y2="480" stroke="rgb(0,0,0)" />
<line x1="100" y1="470" x2="96" y2="470" stroke="rgb(0,0,0)" />
<line x1="100" y1="460" x2="96" y2="460" stroke="rgb(0,0,0)" />
<text x="52" y="458" fill="rgb(0,0,0)">
20</text>
<line x1="100" y1="450" x2="92" y2="450" stroke="rgb(0,0,0)" />
<line x1="100" y1="440" x2="96" y2="440" stroke="rgb(0,0,0)" />
<line x1="100" y1="430" x2="96" y2="430" stroke="rgb(0,0,0)" />
<line x1="100" y1="420" x2="96" y2="420" stroke="rgb(0,0,0)" />
<line x1="100" y1="410" x2="96" y2="410" stroke="rgb(0,0,0)" />
<text x="52" y="408" fill="rgb(0,0,0)">
30</text>
<line x1="100" y1="400" x2="92" y2="400" stroke="rgb(0,0,0)" />
<line x1="100" y1="390" x2="96" y2="390" stroke="rgb(0,0,0)" />
<line x1="100" y1="380" x2="96" y2="380" stroke="rgb(0,0,0)" />
<line x1="100" y1="370" x2="96" y2="370" stroke="rgb(0,0,0)" />
<line x1="100" y1="360" x2="96" y2="360" stroke="rgb(0,0,0)" />
<text x="52" y="358" fill="rgb(0,0,0)">
40</text>
<line x1="100" y1="350" x2="92" y2="350" stroke="rgb(0,0,0)" />
<line x1="100" y1="340" x2="96" y2="340" stroke="rgb(0,0,0)" />
<line x1="100" y1="330" x2="96" y2="330" stroke="rgb(0,0,0)" />
<line x1="100" y1="320" x2="96" y2="320" stroke="rgb(0,0,0)" />
<line x1="100" y1="310" x2="96" y2="310" stroke="rgb(0,0,0)" />
<text x="52" y="308" fill="rgb(0,0,0)">
50</text>
<line x1="100" y1="300" x2="92" y2="300" stroke="rgb(0,0,0)" />
<line x1="100" y1="290" x2="96" y2="290" stroke="rgb(0,0,0)" />
<line x1="100" y1="280" x2="96" y2="280" stroke="rgb(0,0,0)" />
<line x1="100" y1="270" x2="96" y2="270" stroke="rgb(0,0,0)" />
<line x1="100" y1="260" x2="96" y2="260" stroke="rgb(0,0,0)" />
<text x="52" y="258" fill="rgb(0,0,0)">
60</text>
<line x1="100" y1="250" x2="92" y2="250" stroke="rgb(0,0,0)" />
<line x1="100" y1="240" x2="96" y2="240" stroke="rgb(0,0,0)" />
<line x1="100" y1="230" x2="96" y2="230" stroke="rgb(0,0,0)" />
<line x1="100" y1="220" x2="96" y2="220" stroke="rgb(0,0,0)" />
<line x1="100" y1="210" x2="96" y2="210" stroke="rgb(0,0,0)" />
<text x="52" y="208" fill="rgb(0,0,0)">
70</text>
<line x1="100" y1="200" x2="92" y2="200" stroke="rgb(0,0,0)" />
<line x1="100" y1="190" x2="96" y2="190" stroke="rgb(0,0,0)" />
<line x1="100" y1="180" x2="96" y2="180" stroke="rgb(0,0,0)" />
<line x1="100" y1="170" x2="96" y2="170" stroke="rgb(0,0,0)" />
<line x1="100" y1="160" x2="96" y2="160" stroke="rgb(0,0,0)" />
<text x="52" y="158" fill="rgb(0,0,0)">
80</text>
<line x1="100" y1="150" x2="92" y2="150" stroke="rgb(0,0,0)" />
<line x1="100" y1="140" x2="96" y2="140" stroke="rgb(0,0,0)" />
<line x1="100" y1="130" x2="96" y2="130" stroke="rgb(0,0,0)" />
<line x1="100" y1="120" x2="96" y2="120" stroke="rgb(0,0,0)" />
<line x1="100" y1="110" x2="96" y2="110" stroke="rgb(0,0,0)" />
<text x="52" y="108" fill="rgb(0,0,0)">
90</text>
<line x1="100" y1="100" x2="92" y2="100" stroke="rgb(0,0,0)" />
<line x1="100" y1="90" x2="96" y2="90" stroke="rgb(0,0,0)" />
<line x1="100" y1="80" x2="96" y2="80" stroke="rgb(0,0,0)" />
<line x1="100" y1="70" x2="96" y2="70" stroke="rgb(0,0,0)" />
<line x1="100" y1="60" x2="96" y2="60" stroke="rgb(0,0,0)" />
<text x="47" y="58" fill="rgb(0,0,0)">
100</text>
<line x1="100" y1="50" x2="92" y2="50" stroke="rgb(0,0,0)" />
<text x="47" y="355" transform="rotate(-90,47,355)">Temperature (F)</text>
<text x="120" y="66" fill="rgb(100,0,200)">
NYC, NY</text>
<text x="120" y="98" fill="rgb(100,200,200)">
Burlington, VT</text>
<clipPath>
<rect x="100" y="50" width="650" height="500" fill="rgb(0,0,0)" />
</clipPath>
<line x1="100" y1="280" x2="113" y2="276" stroke="rgb(100,0,200)" />
<line x1="113" y1="276" x2="126" y2="279" stroke="rgb(100,0,200)" />
<line x1="126" y1="279" x2="139" y2="274" stroke="rgb(100,0,200)" />
<line x1="139" y1="274" x2="152" y2="281" stroke="rgb(100,0,200)" />
<line x1="152" y1="281" x2="165" y2="270" stroke="rgb(100,0,200)" />
<line x1="165" y1="270" x2="178" y2="276.5" stroke="rgb(100,0,200)" />
<line x1="178" y1="276.5" x2="191" y2="275.5" stroke="rgb(100,0,200)" />
<line x1="191" y1="275.5" x2="204" y2="283.5" stroke="rgb(100,0,200)" />
<line x1="204" y1="283.5" x2="217" y2="278.5" stroke="rgb(100,0,200)" />
<line x1="217" y1="278.5" x2="230" y2="285.5" stroke="rgb(100,0,200)" />
<line x1="230" y1="285.5" x2="243" y2="271.5" stroke="rgb(100,0,200)" />
<line x1="243" y1="271.5" x2="256" y2="275.5" stroke="rgb(100,0,200)" />
<line x1="256" y1="275.5" x2="269" y2="274" stroke="rgb(100,0,200)" />
<line x1="269" y1="274" x2="282" y2="276" stroke="rgb(100,0,200)" />
<line x1="282" y1="276" x2="295" y2="270" stroke="rgb(100,0,200)" />
<line x1="295" y1="270" x2="308" y2="273" stroke="rgb(100,0,200)" />
<line x1="308" y1="273" x2="321" y2="272.5" stroke="rgb(100,0,200)" />
<line x1="321" y1="272.5" x2="334" y2="274" stroke="rgb(100,0,200)" />
<line x1="334" y1="274" x2="347" y2="274.5" stroke="rgb(100,0,200)" />
<line x1="347" y1="274.5" x2="360" y2="276" stroke="rgb(100,0,200)" />
<line x1="360" y1="276" x2="373" y2="280.5" stroke="rgb(100,0,200)" />
<line x1="373" y1="280.5" x2="386" y2="264" stroke="rgb(100,0,200)" />
<line x1="386" y1="264" x2="399" y2="264" stroke="rgb(100,0,200)" />
<line x1="399" y1="264" x2="412" y2="280.5" stroke="rgb(100,0,200)" />
<line x1="412" y1="280.5" x2="425" y2="272.5" stroke="rgb(100,0,200)" />
<line x1="425" y1="272.5" x2="438" y2="274" stroke="rgb(100,0,200)" />
<line x1="438" y1="274" x2="451" y2="273.5" stroke="rgb(100,0,200)" />
<line x1="451" y1="273.5" x2="464" y2="281.5" stroke="rgb(100,0,200)" />
<line x1="464" y1="281.5" x2="477" y2="278.5" stroke="rgb(100,0,200)" />
<line x1="477" y1="278.5" x2="490" y2="264.5" stroke="rgb(100,0,200)" />
<line x1="490" y1="264.5" x2="503" y2="267.5" stroke="rgb(100,0,200)" />
<line x1="503" y1="267.5" x2="516" y2="281" stroke="rgb(100,0,200)" />
<line x1="516" y1="281" x2="529" y2="269" stroke="rgb(100,0,200)" />
<line x1="529" y1="269" x2="542" y2="268" stroke="rgb(100,0,200)" />
<line x1="542" y1="268" x2="555" y2="283" stroke="rgb(100,0,200)" />
<line x1="555" y1="283" x2="568" y2="277.5" stroke="rgb(100,0,200)" />
<line x1="568" y1="277.5" x2="581" y2="271.5" stroke="rgb(100,0,200)" />
<line x1="581" y1="271.5" x2="594" y2="266" stroke="rgb(100,0,200)" />
<line x1="594" y1="266" x2="607" y2="275" stroke="rgb(100,0,200)" />
<line x1="607" y1="275" x2="620" y2="273.5" stroke="rgb(100,0,200)" />
<line x1="620" y1="273.5" x2="633" y2="280" stroke="rgb(100,0,200)" />
<line x1="633" y1="280" x2="646" y2="266.5" stroke="rgb(100,0,200)" />
<line x1="646" y1="266.5" x2="659" y2="268" stroke="rgb(100,0,200)" />
<line x1="659" y1="268" x2="672" y2="263.5" stroke="rgb(100,0,200)" />
<line x1="672" y1="263.5" x2="685" y2="273.5" stroke="rgb(100,0,200)" />
<line x1="685" y1="273.5" x2="698" y2="278" stroke="rgb(100,0,200)" />
<line x1="698" y1="278" x2="711" y2="266.5" stroke="rgb(100,0,200)" />
<line x1="711" y1="266.5" x2="724" y2="264" stroke="rgb(100,0,200)" />
<line x1="724" y1="264" x2="737" y2="268" stroke="rgb(100,0,200)" />
<line x1="737" y1="268" x2="750" y2="270.5" stroke="rgb(100,0,200)" />
<line x1="100" y1="341.5" x2="113" y2="337.5" stroke="rgb(100,200,200)" />
<line x1="113" y1="337.5" x2="126" y2="337.5" stroke="rgb(100,200,200)" />
<line x1="126" y1="337.5" x2="139" y2="333" stroke="rgb(100,200,200)" />
<line x1="139" y1="333" x2="152" y2="338.5" stroke="rgb(100,200,200)" />
<line x1="152" y1="338.5" x2="165" y2="319.5" stroke="rgb(100,200,200)" />
<line x1="165" y1="319.5" x2="178" y2="329" stroke="rgb(100,200,200)" />
<line x1="178" y1="329" x2="191" y2="320" stroke="rgb(100,200,200)" />
<line x1="191" y1="320" x2="204" y2="331.5" stroke="rgb(100,200,200)" />
<line x1="204" y1="331.5" x2="217" y2="323.5" stroke="rgb(100,200,200)" />
<line x1="217" y1="323.5" x2="230" y2="336.5" stroke="rgb(100,200,200)" />
<line x1="230" y1="336.5" x2="243" y2="323" stroke="rgb(100,200,200)" />
<line x1="243" y1="323" x2="256" y2="329" stroke="rgb(100,200,200)" />
<line x1="256" y1="329" x2="269" y2="320.5" stroke="rgb(100,200,200)" />
<line x1="269" y1="320.5" x2="282" y2="324" stroke="rgb(100,200,200)" />
<line x1="282" y1="324" x2="295" y2="321" stroke="rgb(100,200,200)" />
<line x1="295" y1="321" x2="308" y2="322" stroke="rgb(100,200,200)" />
<line x1="308" y1="322" x2="321" y2="327.5" stroke="rgb(100,200,200)" />
<line x1="321" y1="327.5" x2="334" y2="325.5" stroke="rgb(100,200,200)" />
<line x1="334" y1="325.5" x2="347" y2="322.5" stroke="rgb(100,200,200)" />
<line x1="347" y1="322.5" x2="360" y2="323" stroke="rgb(100,200,200)" />
<line x1="360" y1="323" x2="373" y2="327" stroke="rgb(100,200,200)" />
<line x1="373" y1="327" x2="386" y2="312.5" stroke="rgb(100,200,200)" />
<line x1="386" y1="312.5" x2="399" y2="315" stroke="rgb(100,200,200)" />
<line x1="399" y1="315" x2="412" y2="328.5" stroke="rgb(100,200,200)" />
<line x1="412" y1="328.5" x2="425" y2="327" stroke="rgb(100,200,200)" />
<line x1="425" y1="327" x2="438" y2="325" stroke="rgb(100,200,200)" />
<line x1="438" y1="325" x2="451" y2="316" stroke="rgb(100,200,200)" />
<line x1="451" y1="316" x2="464" y2="324" stroke="rgb(100,200,200)" />
<line x1="464" y1="324" x2="477" y2="328" stroke="rgb(100,200,200)" />
<line x1="477" y1="328" x2="490" y2="308.5" stroke="rgb(100,200,200)" />
<line x1="490" y1="308.5" x2="503" y2="311" stroke="rgb(100,200,200)" />
<line x1="503" y1="311" x2="516" y2="325.5" stroke="rgb(100,200,200)" />
<line x1="516" y1="325.5" x2="529" y2="314" stroke="rgb(100,200,200)" />
<line x1="529" y1="314" x2="542" y2="315" stroke="rgb(100,200,200)" />
<line x1="542" y1="315" x2="555" y2="326" stroke="rgb(100,200,200)" />
<line x1="555" y1="326" x2="568" y2="327.5" stroke="rgb(100,200,200)" />
<line x1="568" y1="327.5" x2="581" y2="318" stroke="rgb(100,200,200)" />
<line x1="581" y1="318" x2="594" y2="309.5" stroke="rgb(100,200,200)" />
<line x1="594" y1="309.5" x2="607" y2="322" stroke="rgb(100,200,200)" />
<line x1="607" y1="322" x2="620" y2="318.5" stroke="rgb(100,200,200)" />
<line x1="620" y1="318.5" x2="633" y2="322" stroke="rgb(100,200,200)" />
<line x1="633" y1="322" x2="646" y2="310" stroke="rgb(100,200,200)" />
<line x1="646" y1="310" x2="659" y2="312" stroke="rgb(100,200,200)" />
<line x1="659" y1="312" x2="672" y2="300.5" stroke="rgb(100,200,200)" />
<line x1="672" y1="300.5" x2="685" y2="314.5" stroke="rgb(100,200,200)" />
<line x1="685" y1="314.5" x2="698" y2="318" stroke="rgb(100,200,200)" />
<line x1="698" y1="318" x2="711" y2="314.5" stroke="rgb(100,200,200)" />
<line x1="711" y1="314.5" x2="724" y2="303.5" stroke="rgb(100,200,200)" />
<line x1="724" y1="303.5" x2="737" y2="306" stroke="rgb(100,200,200)" />
<line x1="737" y1="306" x2="750" y2="309.5" stroke="rgb(100,200,200)" />
</svg>

