<?xml version="1.0" encoding="utf-8"?>
<svg version="1.1" baseProfile="full" width="300" height="300" xmlns="http://www.w3.org/2000/svg">
<clipPath>
<rect x="0" y="0" width="300" height="300" fill="rgb(0,0,0)" />
</clipPath>
<line x1="50" y1="20" x2="50" y2="258" stroke="rgb(200,200,200)" />
<line x1="107.5" y1="20" x2="107.5" y2="258" stroke="rgb(200,200,200)" />
<line x1="165" y1="20" x2="165" y2="258" stroke="rgb(200,200,200)" />
<line x1="222.5" y1="20" x2="222.5" y2="258" stroke="rgb(200,200,200)" />
<line x1="280" y1="20" x2="280" y2="258" stroke="rgb(200,200,200)" />
<line x1="50" y1="258" x2="280" y2="258" stroke="rgb(200,200,200)" />
<line x1="50" y1="241" x2="280" y2="241" stroke="rgb(200,200,200)" />
<line x1="50" y1="224" x2="280" y2="224" stroke="rgb(200,200,200)" />
<line x1="50" y1="207" x2="280" y2="207" stroke="rgb(200,200,200)" />
<line x1="50" y1="190" x2="280" y2="190" stroke="rgb(200,200,200)" />
<line x1="50" y1="173" x2="280" y2="173" stroke="rgb(200,200,200)" />
<line x1="50" y1="156" x2="280" y2="156" stroke="rgb(200,200,200)" />
<line x1="50" y1="139" x2="280" y2="139" stroke="rgb(200,200,200)" />
<line x1="50" y1="122" x2="280" y2="122" stroke="rgb(200,200,200)" />
<line x1="50" y1="105" x2="280" y2="105" stroke="rgb(200,200,200)" />
<line x1="50" y1="88" x2="280" y2="88" stroke="rgb(200,200,200)" />
<line x1="50" y1="71" x2="280" y2="71" stroke="rgb(200,200,200)" />
<line x1="50" y1="258" x2="280" y2="258" stroke="rgb(0,0,0)" />
<text x="50" y="282" fill="rgb(0,0,0)">
1.0e-04</text>
<line x1="50" y1="258" x2="50" y2="263" stroke="rgb(0,0,0)" />
<line x1="67.3092" y1="258" x2="67.3092" y2="261" stroke="rgb(0,0,0)" />
<line x1="77.4345" y1="258" x2="77.4345" y2="261" stroke="rgb(0,0,0)" />
<line x1="84.6185" y1="258" x2="84.6185" y2="261" stroke="rgb(0,0,0)" />
<line x1="90.1908" y1="258" x2="90.1908" y2="261" stroke="rgb(0,0,0)" />
<line x1="94.7437" y1="258" x2="94.7437" y2="261" stroke="rgb(0,0,0)" />
<line x1="98.5931" y1="258" x2="98.5931" y2="261" stroke="rgb(0,0,0)" />
<line x1="101.928" y1="258" x2="101.928" y2="261" stroke="rgb(0,0,0)" />
<line x1="104.869" y1="258" x2="104.869" y2="261" stroke="rgb(0,0,0)" />
<text x="107" y="282" fill="rgb(0,0,0)">
1.0e-03</text>
<line x1="107.5" y1="258" x2="107.5" y2="263" stroke="rgb(0,0,0)" />
<line x1="124.809" y1="258" x2="124.809" y2="261" stroke="rgb(0,0,0)" />
<line x1="134.934" y1="258" x2="134.934" y2="261" stroke="rgb(0,0,0)" />
<line x1="142.118" y1="258" x2="142.118" y2="261" stroke="rgb(0,0,0)" />
<line x1="147.691" y1="258" x2="147.691" y2="261" stroke="rgb(0,0,0)" />
<line x1="152.244" y1="258" x2="152.244" y2="261" stroke="rgb(0,0,0)" />
<line x1="156.093" y1="258" x2="156.093" y2="261" stroke="rgb(0,0,0)" />
<line x1="159.428" y1="258" x2="159.428" y2="261" stroke="rgb(0,0,0)" />
<line x1="162.369" y1="258" x2="162.369" y2="261" stroke="rgb(0,0,0)" />
<text x="165" y="282" fill="rgb(0,0,0)">
0.01</text>
<line x1="165" y1="258" x2="165" y2="263" stroke="rgb(0,0,0)" />
<line x1="182.309" y1="258" x2="182.309" y2="261" stroke="rgb(0,0,0)" />
<line x1="192.434" y1="258" x2="192.434" y2="261" stroke="rgb(0,0,0)" />
<line x1="199.618" y1="258" x2="199.618" y2="261" stroke="rgb(0,0,0)" />
<line x1="205.191" y1="258" x2="205.191" y2="261" stroke="rgb(0,0,0)" />
<line x1="209.744" y1="258" x2="209.744" y2="261" stroke="rgb(0,0,0)" />
<line x1="213.593" y1="258" x2="213.593" y2="261" stroke="rgb(0,0,0)" />
<line x1="216.928" y1="258" x2="216.928" y2="261" stroke="rgb(0,0,0)" />
<line x1="219.869" y1="258" x2="219.869" y2="261" stroke="rgb(0,0,0)" />
<text x="222" y="282" fill="rgb(0,0,0)">
0.10</text>
<line x1="222.5" y1="258" x2="222.5" y2="263" stroke="rgb(0,0,0)" />
<line x1="239.809" y1="258" x2="239.809" y2="261" stroke="rgb(0,0,0)" />
<line x1="249.934" y1="258" x2="249.934" y2="261" stroke="rgb(0,0,0)" />
<line x1="257.118" y1="258" x2="257.118" y2="261" stroke="rgb(0,0,0)" />
<line x1="262.691" y1="258" x2="262.691" y2="261" stroke="rgb(0,0,0)" />
<line x1="267.244" y1="258" x2="267.244" y2="261" stroke="rgb(0,0,0)" />
<line x1="271.093" y1="258" x2="271.093" y2="261" stroke="rgb(0,0,0)" />
<line x1="274.428" y1="258" x2="274.428" y2="261" stroke="rgb(0,0,0)" />
<line x1="277.369" y1="258" x2="277.369" y2="261" stroke="rgb(0,0,0)" />
<text x="280" y="282" fill="rgb(0,0,0)">
1</text>
<line x1="280" y1="258" x2="280" y2="263" stroke="rgb(0,0,0)" />
<line x1="50" y1="20" x2="50" y2="258" stroke="rgb(0,0,0)" />
<text x="-10" y="266" fill="rgb(0,0,0)">
0.008</text>
<line x1="50" y1="258" x2="45" y2="258" stroke="rgb(0,0,0)" />
<text x="-4" y="249" fill="rgb(0,0,0)">
0.02</text>
<line x1="50" y1="241" x2="45" y2="241" stroke="rgb(0,0,0)" />
<text x="-4" y="232" fill="rgb(0,0,0)">
0.03</text>
<line x1="50" y1="224" x2="45" y2="224" stroke="rgb(0,0,0)" />
<text x="-4" y="215" fill="rgb(0,0,0)">
0.06</text>
<line x1="50" y1="207" x2="45" y2="207" stroke="rgb(0,0,0)" />
<text x="3" y="198" fill="rgb(0,0,0)">
0.1</text>
<line x1="50" y1="190" x2="45" y2="190" stroke="rgb(0,0,0)" />
<text x="2" y="181" fill="rgb(0,0,0)">
0.2</text>
<line x1="50" y1="173" x2="45" y2="173" stroke="rgb(0,0,0)" />
<text x="2" y="164" fill="rgb(0,0,0)">
0.5</text>
<line x1="50" y1="156" x2="45" y2="156" stroke="rgb(0,0,0)" />
<text x="13" y="147" fill="rgb(0,0,0)">
1</text>
<line x1="50" y1="139" x2="45" y2="139" stroke="rgb(0,0,0)" />
<text x="12" y="130" fill="rgb(0,0,0)">
2</text>
<line x1="50" y1="122" x2="45" y2="122" stroke="rgb(0,0,0)" />
<text x="12" y="113" fill="rgb(0,0,0)">
4</text>
<line x1="50" y1="105" x2="45" y2="105" stroke="rgb(0,0,0)" />
<text x="12" y="95" fill="rgb(0,0,0)">
8</text>
<line x1="50" y1="88" x2="45" y2="88" stroke="rgb(0,0,0)" />
<text x="7" y="78" fill="rgb(0,0,0)">
16</text>
<line x1="50" y1="71" x2="45" y2="71" stroke="rgb(0,0,0)" />
<line x1="50" y1="54" x2="47" y2="54" stroke="rgb(0,0,0)" />
<line x1="50" y1="44.0556" x2="47" y2="44.0556" stroke="rgb(0,0,0)" />
<line x1="50" y1="31.5272" x2="47" y2="31.5272" stroke="rgb(0,0,0)" />
<text x="70" y="36" fill="rgb(100,100,200)">
foo</text>
<clipPath>
<rect x="50" y="20" width="230" height="238" fill="rgb(0,0,0)" />
</clipPath>
<line x1="50" y1="251.946" x2="109.88" y2="251.702" stroke="rgb(100,100,200)" />
<line x1="109.88" y1="251.702" x2="126.028" y2="250.058" stroke="rgb(100,100,200)" />
<line x1="126.028" y1="250.058" x2="135.753" y2="246.083" stroke="rgb(100,100,200)" />
<line x1="135.753" y1="246.083" x2="142.735" y2="239.813" stroke="rgb(100,100,200)" />
<line x1="142.735" y1="239.813" x2="148.185" y2="232.057" stroke="rgb(100,100,200)" />
<line x1="148.185" y1="232.057" x2="152.656" y2="223.727" stroke="rgb(100,100,200)" />
<line x1="152.656" y1="223.727" x2="156.447" y2="215.441" stroke="rgb(100,100,200)" />
<line x1="156.447" y1="215.441" x2="159.738" y2="207.516" stroke="rgb(100,100,200)" />
<line x1="159.738" y1="207.516" x2="162.645" y2="200.072" stroke="rgb(100,100,200)" />
<line x1="162.645" y1="200.072" x2="165.248" y2="193.135" stroke="rgb(100,100,200)" />
<line x1="165.248" y1="193.135" x2="167.606" y2="186.683" stroke="rgb(100,100,200)" />
<line x1="167.606" y1="186.683" x2="169.76" y2="180.678" stroke="rgb(100,100,200)" />
<line x1="169.76" y1="180.678" x2="171.743" y2="175.077" stroke="rgb(100,100,200)" />
<line x1="171.743" y1="175.077" x2="173.58" y2="169.838" stroke="rgb(100,100,200)" />
<line x1="173.58" y1="169.838" x2="175.291" y2="164.924" stroke="rgb(100,100,200)" />
<line x1="175.291" y1="164.924" x2="176.892" y2="160.3" stroke="rgb(100,100,200)" />
<line x1="176.892" y1="160.3" x2="178.397" y2="155.936" stroke="rgb(100,100,200)" />
<line x1="178.397" y1="155.936" x2="179.817" y2="151.808" stroke="rgb(100,100,200)" />
<line x1="179.817" y1="151.808" x2="181.159" y2="147.892" stroke="rgb(100,100,200)" />
<line x1="181.159" y1="147.892" x2="182.434" y2="144.168" stroke="rgb(100,100,200)" />
<line x1="182.434" y1="144.168" x2="183.646" y2="140.62" stroke="rgb(100,100,200)" />
<line x1="183.646" y1="140.62" x2="184.803" y2="137.231" stroke="rgb(100,100,200)" />
<line x1="184.803" y1="137.231" x2="185.908" y2="133.989" stroke="rgb(100,100,200)" />
<line x1="185.908" y1="133.989" x2="186.966" y2="130.881" stroke="rgb(100,100,200)" />
<line x1="186.966" y1="130.881" x2="187.981" y2="127.898" stroke="rgb(100,100,200)" />
<line x1="187.981" y1="127.898" x2="188.957" y2="125.03" stroke="rgb(100,100,200)" />
<line x1="188.957" y1="125.03" x2="189.896" y2="122.268" stroke="rgb(100,100,200)" />
<line x1="189.896" y1="122.268" x2="190.801" y2="119.605" stroke="rgb(100,100,200)" />
<line x1="190.801" y1="119.605" x2="191.674" y2="117.034" stroke="rgb(100,100,200)" />
<line x1="191.674" y1="117.034" x2="192.518" y2="114.549" stroke="rgb(100,100,200)" />
<line x1="192.518" y1="114.549" x2="193.334" y2="112.145" stroke="rgb(100,100,200)" />
<line x1="193.334" y1="112.145" x2="194.124" y2="109.816" stroke="rgb(100,100,200)" />
<line x1="194.124" y1="109.816" x2="194.89" y2="107.559" stroke="rgb(100,100,200)" />
<line x1="194.89" y1="107.559" x2="195.633" y2="105.368" stroke="rgb(100,100,200)" />
<line x1="195.633" y1="105.368" x2="196.355" y2="103.241" stroke="rgb(100,100,200)" />
<line x1="196.355" y1="103.241" x2="197.057" y2="101.172" stroke="rgb(100,100,200)" />
<line x1="197.057" y1="101.172" x2="197.739" y2="99.1606" stroke="rgb(100,100,200)" />
<line x1="197.739" y1="99.1606" x2="198.403" y2="97.2021" stroke="rgb(100,100,200)" />
<line x1="198.403" y1="97.2021" x2="199.05" y2="95.2943" stroke="rgb(100,100,200)" />
<line x1="199.05" y1="95.2943" x2="199.681" y2="93.4345" stroke="rgb(100,100,200)" />
<line x1="199.681" y1="93.4345" x2="200.296" y2="91.6204" stroke="rgb(100,100,200)" />
<line x1="200.296" y1="91.6204" x2="200.896" y2="89.8498" stroke="rgb(100,100,200)" />
<line x1="200.896" y1="89.8498" x2="201.482" y2="88.1208" stroke="rgb(100,100,200)" />
<line x1="201.482" y1="88.1208" x2="202.055" y2="86.4313" stroke="rgb(100,100,200)" />
<line x1="202.055" y1="86.4313" x2="202.615" y2="84.7797" stroke="rgb(100,100,200)" />
<line x1="202.615" y1="84.7797" x2="203.163" y2="83.1643" stroke="rgb(100,100,200)" />
<line x1="203.163" y1="83.1643" x2="203.699" y2="81.5835" stroke="rgb(100,100,200)" />
<line x1="203.699" y1="81.5835" x2="204.223" y2="80.0359" stroke="rgb(100,100,200)" />
<line x1="204.223" y1="80.0359" x2="204.737" y2="78.5201" stroke="rgb(100,100,200)" />
<line x1="204.737" y1="78.5201" x2="205.241" y2="77.0348" stroke="rgb(100,100,200)" />
<line x1="205.241" y1="77.0348" x2="205.734" y2="75.5789" stroke="rgb(100,100,200)" />
<line x1="205.734" y1="75.5789" x2="206.218" y2="74.1512" stroke="rgb(100,100,200)" />
<line x1="206.218" y1="74.1512" x2="206.693" y2="72.7507" stroke="rgb(100,100,200)" />
<line x1="206.693" y1="72.7507" x2="207.159" y2="71.3763" stroke="rgb(100,100,200)" />
<line x1="207.159" y1="71.3763" x2="207.616" y2="70.027" stroke="rgb(100,100,200)" />
<line x1="207.616" y1="70.027" x2="208.065" y2="68.702" stroke="rgb(100,100,200)" />
<line x1="208.065" y1="68.702" x2="208.507" y2="67.4005" stroke="rgb(100,100,200)" />
<line x1="208.507" y1="67.4005" x2="208.94" y2="66.1215" stroke="rgb(100,100,200)" />
<line x1="208.94" y1="66.1215" x2="209.366" y2="64.8644" stroke="rgb(100,100,200)" />
<line x1="209.366" y1="64.8644" x2="209.785" y2="63.6283" stroke="rgb(100,100,200)" />
<line x1="209.785" y1="63.6283" x2="210.197" y2="62.4127" stroke="rgb(100,100,200)" />
<line x1="210.197" y1="62.4127" x2="210.603" y2="61.2168" stroke="rgb(100,100,200)" />
<line x1="210.603" y1="61.2168" x2="211.002" y2="60.04" stroke="rgb(100,100,200)" />
<line x1="211.002" y1="60.04" x2="211.394" y2="58.8818" stroke="rgb(100,100,200)" />
<line x1="211.394" y1="58.8818" x2="211.781" y2="57.7414" stroke="rgb(100,100,200)" />
<line x1="211.781" y1="57.7414" x2="212.162" y2="56.6185" stroke="rgb(100,100,200)" />
<line x1="212.162" y1="56.6185" x2="212.537" y2="55.5124" stroke="rgb(100,100,200)" />
<line x1="212.537" y1="55.5124" x2="212.906" y2="54.4227" stroke="rgb(100,100,200)" />
<line x1="212.906" y1="54.4227" x2="213.27" y2="53.3489" stroke="rgb(100,100,200)" />
<line x1="213.27" y1="53.3489" x2="213.629" y2="52.2905" stroke="rgb(100,100,200)" />
<line x1="213.629" y1="52.2905" x2="213.982" y2="51.2471" stroke="rgb(100,100,200)" />
<line x1="213.982" y1="51.2471" x2="214.331" y2="50.2184" stroke="rgb(100,100,200)" />
<line x1="214.331" y1="50.2184" x2="214.675" y2="49.2038" stroke="rgb(100,100,200)" />
<line x1="214.675" y1="49.2038" x2="215.015" y2="48.2029" stroke="rgb(100,100,200)" />
<line x1="215.015" y1="48.2029" x2="215.349" y2="47.2155" stroke="rgb(100,100,200)" />
<line x1="215.349" y1="47.2155" x2="215.68" y2="46.2412" stroke="rgb(100,100,200)" />
<line x1="215.68" y1="46.2412" x2="216.006" y2="45.2796" stroke="rgb(100,100,200)" />
<line x1="216.006" y1="45.2796" x2="216.327" y2="44.3304" stroke="rgb(100,100,200)" />
<line x1="216.327" y1="44.3304" x2="216.645" y2="43.3933" stroke="rgb(100,100,200)" />
<line x1="216.645" y1="43.3933" x2="216.959" y2="42.468" stroke="rgb(100,100,200)" />
<line x1="216.959" y1="42.468" x2="217.269" y2="41.5541" stroke="rgb(100,100,200)" />
<line x1="217.269" y1="41.5541" x2="217.575" y2="40.6515" stroke="rgb(100,100,200)" />
<line x1="217.575" y1="40.6515" x2="217.877" y2="39.7598" stroke="rgb(100,100,200)" />
<line x1="217.877" y1="39.7598" x2="218.176" y2="38.8788" stroke="rgb(100,100,200)" />
<line x1="218.176" y1="38.8788" x2="218.471" y2="38.0082" stroke="rgb(100,100,200)" />
<line x1="218.471" y1="38.0082" x2="218.763" y2="37.1478" stroke="rgb(100,100,200)" />
<line x1="218.763" y1="37.1478" x2="219.051" y2="36.2973" stroke="rgb(100,100,200)" />
<line x1="219.051" y1="36.2973" x2="219.336" y2="35.4565" stroke="rgb(100,100,200)" />
<line x1="219.336" y1="35.4565" x2="219.618" y2="34.6252" stroke="rgb(100,100,200)" />
<line x1="219.618" y1="34.6252" x2="219.897" y2="33.8032" stroke="rgb(100,100,200)" />
<line x1="219.897" y1="33.8032" x2="220.172" y2="32.9903" stroke="rgb(100,100,200)" />
<line x1="220.172" y1="32.9903" x2="220.445" y2="32.1863" stroke="rgb(100,100,200)" />
<line x1="220.445" y1="32.1863" x2="220.715" y2="31.391" stroke="rgb(100,100,200)" />
<line x1="220.715" y1="31.391" x2="220.981" y2="30.6041" stroke="rgb(100,100,200)" />
<line x1="220.981" y1="30.6041" x2="221.245" y2="29.8256" stroke="rgb(100,100,200)" />
<line x1="221.245" y1="29.8256" x2="221.507" y2="29.0552" stroke="rgb(100,100,200)" />
<line x1="221.507" y1="29.0552" x2="221.765" y2="28.2929" stroke="rgb(100,100,200)" />
<line x1="221.765" y1="28.2929" x2="222.021" y2="27.5383" stroke="rgb(100,100,200)" />
<line x1="222.021" y1="27.5383" x2="222.274" y2="26.7914" stroke="rgb(100,100,200)" />
<line x1="222.274" y1="26.7914" x2="222.525" y2="26.052" stroke="rgb(100,100,200)" />
</svg>

