<?xml version="1.0" encoding="utf-8"?>
<svg version="1.1" baseProfile="full" width="300" height="300" xmlns="http://www.w3.org/2000/svg">
<clipPath>
<rect x="0" y="0" width="300" height="300" fill="rgb(0,0,0)" />
</clipPath>
<rect x="0" y="0" width="300" height="300" fill="rgb(200,200,200)" />
<text x="102" y="44">no autoscale</text>
<line x1="40" y1="258" x2="270" y2="258" stroke="rgb(0,0,0)" />
<line x1="260.8" y1="258" x2="260.8" y2="260" stroke="rgb(0,0,0)" />
<line x1="242.4" y1="258" x2="242.4" y2="260" stroke="rgb(0,0,0)" />
<text x="224" y="280">20</text>
<line x1="224" y1="258" x2="224" y2="262" stroke="rgb(0,0,0)" />
<line x1="205.6" y1="258" x2="205.6" y2="260" stroke="rgb(0,0,0)" />
<line x1="187.2" y1="258" x2="187.2" y2="260" stroke="rgb(0,0,0)" />
<line x1="168.8" y1="258" x2="168.8" y2="260" stroke="rgb(0,0,0)" />
<line x1="150.4" y1="258" x2="150.4" y2="260" stroke="rgb(0,0,0)" />
<text x="132" y="280">40</text>
<line x1="132" y1="258" x2="132" y2="262" stroke="rgb(0,0,0)" />
<line x1="113.6" y1="258" x2="113.6" y2="260" stroke="rgb(0,0,0)" />
<line x1="95.2" y1="258" x2="95.2" y2="260" stroke="rgb(0,0,0)" />
<line x1="76.8" y1="258" x2="76.8" y2="260" stroke="rgb(0,0,0)" />
<line x1="58.4" y1="258" x2="58.4" y2="260" stroke="rgb(0,0,0)" />
<text x="40" y="280">60</text>
<line x1="40" y1="258" x2="40" y2="262" stroke="rgb(0,0,0)" />
<text x="129" y="296">Tg (X)</text>
<line x1="40" y1="60" x2="40" y2="258" stroke="rgb(0,0,0)" />
<line x1="40" y1="63.96" x2="37" y2="63.96" stroke="rgb(0,0,0)" />
<line x1="40" y1="71.88" x2="37" y2="71.88" stroke="rgb(0,0,0)" />
<text x="-14" y="87">-0.4</text>
<line x1="40" y1="79.8" x2="35" y2="79.8" stroke="rgb(0,0,0)" />
<line x1="40" y1="87.72" x2="37" y2="87.72" stroke="rgb(0,0,0)" />
<line x1="40" y1="95.64" x2="37" y2="95.64" stroke="rgb(0,0,0)" />
<line x1="40" y1="103.56" x2="37" y2="103.56" stroke="rgb(0,0,0)" />
<line x1="40" y1="111.48" x2="37" y2="111.48" stroke="rgb(0,0,0)" />
<text x="-14" y="127">-0.2</text>
<line x1="40" y1="119.4" x2="35" y2="119.4" stroke="rgb(0,0,0)" />
<line x1="40" y1="127.32" x2="37" y2="127.32" stroke="rgb(0,0,0)" />
<line x1="40" y1="135.24" x2="37" y2="135.24" stroke="rgb(0,0,0)" />
<line x1="40" y1="143.16" x2="37" y2="143.16" stroke="rgb(0,0,0)" />
<line x1="40" y1="151.08" x2="37" y2="151.08" stroke="rgb(0,0,0)" />
<text x="-14" y="166">-0.0</text>
<line x1="40" y1="159" x2="35" y2="159" stroke="rgb(0,0,0)" />
<line x1="40" y1="166.92" x2="37" y2="166.92" stroke="rgb(0,0,0)" />
<line x1="40" y1="174.84" x2="37" y2="174.84" stroke="rgb(0,0,0)" />
<line x1="40" y1="182.76" x2="37" y2="182.76" stroke="rgb(0,0,0)" />
<line x1="40" y1="190.68" x2="37" y2="190.68" stroke="rgb(0,0,0)" />
<text x="-8" y="206">0.2</text>
<line x1="40" y1="198.6" x2="35" y2="198.6" stroke="rgb(0,0,0)" />
<line x1="40" y1="206.52" x2="37" y2="206.52" stroke="rgb(0,0,0)" />
<line x1="40" y1="214.44" x2="37" y2="214.44" stroke="rgb(0,0,0)" />
<line x1="40" y1="222.36" x2="37" y2="222.36" stroke="rgb(0,0,0)" />
<line x1="40" y1="230.28" x2="37" y2="230.28" stroke="rgb(0,0,0)" />
<text x="-8" y="246">0.4</text>
<line x1="40" y1="238.2" x2="35" y2="238.2" stroke="rgb(0,0,0)" />
<line x1="40" y1="246.12" x2="37" y2="246.12" stroke="rgb(0,0,0)" />
<line x1="40" y1="254.04" x2="37" y2="254.04" stroke="rgb(0,0,0)" />
<text x="60" y="76">plot 0</text>
<text x="60" y="108">plot 1</text>
<clipPath>
<rect x="40" y="60" width="230" height="198" fill="rgb(0,0,0)" />
</clipPath>
<line x1="316" y1="159" x2="311.4" y2="159" stroke="rgb(255,0,0)" />
<line x1="311.4" y1="159" x2="306.8" y2="159.002" stroke="rgb(255,0,0)" />
<line x1="306.8" y1="159.002" x2="302.2" y2="159.005" stroke="rgb(255,0,0)" />
<line x1="302.2" y1="159.005" x2="297.6" y2="159.013" stroke="rgb(255,0,0)" />
<line x1="297.6" y1="159.013" x2="293" y2="159.025" stroke="rgb(255,0,0)" />
<line x1="293" y1="159.025" x2="288.4" y2="159.043" stroke="rgb(255,0,0)" />
<line x1="288.4" y1="159.043" x2="283.8" y2="159.068" stroke="rgb(255,0,0)" />
<line x1="283.8" y1="159.068" x2="279.2" y2="159.101" stroke="rgb(255,0,0)" />
<line x1="279.2" y1="159.101" x2="274.6" y2="159.144" stroke="rgb(255,0,0)" />
<line x1="274.6" y1="159.144" x2="270" y2="159.198" stroke="rgb(255,0,0)" />
<line x1="270" y1="159.198" x2="265.4" y2="159.264" stroke="rgb(255,0,0)" />
<line x1="265.4" y1="159.264" x2="260.8" y2="159.342" stroke="rgb(255,0,0)" />
<line x1="260.8" y1="159.342" x2="256.2" y2="159.435" stroke="rgb(255,0,0)" />
<line x1="256.2" y1="159.435" x2="251.6" y2="159.543" stroke="rgb(255,0,0)" />
<line x1="251.6" y1="159.543" x2="247" y2="159.668" stroke="rgb(255,0,0)" />
<line x1="247" y1="159.668" x2="242.4" y2="159.811" stroke="rgb(255,0,0)" />
<line x1="242.4" y1="159.811" x2="237.8" y2="159.973" stroke="rgb(255,0,0)" />
<line x1="237.8" y1="159.973" x2="233.2" y2="160.155" stroke="rgb(255,0,0)" />
<line x1="233.2" y1="160.155" x2="228.6" y2="160.358" stroke="rgb(255,0,0)" />
<line x1="228.6" y1="160.358" x2="224" y2="160.584" stroke="rgb(255,0,0)" />
<line x1="224" y1="160.584" x2="219.4" y2="160.834" stroke="rgb(255,0,0)" />
<line x1="219.4" y1="160.834" x2="214.8" y2="161.108" stroke="rgb(255,0,0)" />
<line x1="214.8" y1="161.108" x2="210.2" y2="161.409" stroke="rgb(255,0,0)" />
<line x1="210.2" y1="161.409" x2="205.6" y2="161.737" stroke="rgb(255,0,0)" />
<line x1="205.6" y1="161.737" x2="201" y2="162.094" stroke="rgb(255,0,0)" />
<line x1="201" y1="162.094" x2="196.4" y2="162.48" stroke="rgb(255,0,0)" />
<line x1="196.4" y1="162.48" x2="191.8" y2="162.897" stroke="rgb(255,0,0)" />
<line x1="191.8" y1="162.897" x2="187.2" y2="163.346" stroke="rgb(255,0,0)" />
<line x1="187.2" y1="163.346" x2="182.6" y2="163.829" stroke="rgb(255,0,0)" />
<line x1="182.6" y1="163.829" x2="178" y2="164.346" stroke="rgb(255,0,0)" />
<line x1="178" y1="164.346" x2="173.4" y2="164.899" stroke="rgb(255,0,0)" />
<line x1="173.4" y1="164.899" x2="168.8" y2="165.488" stroke="rgb(255,0,0)" />
<line x1="168.8" y1="165.488" x2="164.2" y2="166.116" stroke="rgb(255,0,0)" />
<line x1="164.2" y1="166.116" x2="159.6" y2="166.782" stroke="rgb(255,0,0)" />
<line x1="159.6" y1="166.782" x2="155" y2="167.489" stroke="rgb(255,0,0)" />
<line x1="155" y1="167.489" x2="150.4" y2="168.238" stroke="rgb(255,0,0)" />
<line x1="150.4" y1="168.238" x2="145.8" y2="169.029" stroke="rgb(255,0,0)" />
<line x1="145.8" y1="169.029" x2="141.2" y2="169.865" stroke="rgb(255,0,0)" />
<line x1="141.2" y1="169.865" x2="136.6" y2="170.745" stroke="rgb(255,0,0)" />
<line x1="136.6" y1="170.745" x2="132" y2="171.672" stroke="rgb(255,0,0)" />
<line x1="132" y1="171.672" x2="127.4" y2="172.646" stroke="rgb(255,0,0)" />
<line x1="127.4" y1="172.646" x2="122.8" y2="173.669" stroke="rgb(255,0,0)" />
<line x1="122.8" y1="173.669" x2="118.2" y2="174.742" stroke="rgb(255,0,0)" />
<line x1="118.2" y1="174.742" x2="113.6" y2="175.866" stroke="rgb(255,0,0)" />
<line x1="113.6" y1="175.866" x2="109" y2="177.043" stroke="rgb(255,0,0)" />
<line x1="109" y1="177.043" x2="104.4" y2="178.273" stroke="rgb(255,0,0)" />
<line x1="104.4" y1="178.273" x2="99.8" y2="179.557" stroke="rgb(255,0,0)" />
<line x1="99.8" y1="179.557" x2="95.2" y2="180.897" stroke="rgb(255,0,0)" />
<line x1="95.2" y1="180.897" x2="90.6" y2="182.294" stroke="rgb(255,0,0)" />
<line x1="90.6" y1="182.294" x2="86" y2="183.75" stroke="rgb(255,0,0)" />
<line x1="86" y1="183.75" x2="81.4" y2="185.265" stroke="rgb(255,0,0)" />
<line x1="81.4" y1="185.265" x2="76.8" y2="186.84" stroke="rgb(255,0,0)" />
<line x1="76.8" y1="186.84" x2="72.2" y2="188.478" stroke="rgb(255,0,0)" />
<line x1="72.2" y1="188.478" x2="67.6" y2="190.178" stroke="rgb(255,0,0)" />
<line x1="67.6" y1="190.178" x2="63" y2="191.942" stroke="rgb(255,0,0)" />
<line x1="63" y1="191.942" x2="58.4" y2="193.772" stroke="rgb(255,0,0)" />
<line x1="58.4" y1="193.772" x2="53.8" y2="195.668" stroke="rgb(255,0,0)" />
<line x1="53.8" y1="195.668" x2="49.2" y2="197.632" stroke="rgb(255,0,0)" />
<line x1="49.2" y1="197.632" x2="44.6" y2="199.665" stroke="rgb(255,0,0)" />
<line x1="44.6" y1="199.665" x2="40" y2="201.768" stroke="rgb(255,0,0)" />
<line x1="40" y1="201.768" x2="35.4" y2="203.942" stroke="rgb(255,0,0)" />
<line x1="35.4" y1="203.942" x2="30.8" y2="206.189" stroke="rgb(255,0,0)" />
<line x1="30.8" y1="206.189" x2="26.2" y2="208.509" stroke="rgb(255,0,0)" />
<line x1="26.2" y1="208.509" x2="21.6" y2="210.905" stroke="rgb(255,0,0)" />
<line x1="21.6" y1="210.905" x2="17" y2="213.376" stroke="rgb(255,0,0)" />
<line x1="17" y1="213.376" x2="12.4" y2="215.924" stroke="rgb(255,0,0)" />
<line x1="12.4" y1="215.924" x2="7.80002" y2="218.551" stroke="rgb(255,0,0)" />
<line x1="7.80002" y1="218.551" x2="3.20001" y2="221.258" stroke="rgb(255,0,0)" />
<line x1="3.20001" y1="221.258" x2="-1.39999" y2="224.045" stroke="rgb(255,0,0)" />
<line x1="-1.39999" y1="224.045" x2="-6" y2="226.914" stroke="rgb(255,0,0)" />
<line x1="-6" y1="226.914" x2="-10.6" y2="229.866" stroke="rgb(255,0,0)" />
<line x1="-10.6" y1="229.866" x2="-15.2" y2="232.903" stroke="rgb(255,0,0)" />
<line x1="-15.2" y1="232.903" x2="-19.8" y2="236.025" stroke="rgb(255,0,0)" />
<line x1="-19.8" y1="236.025" x2="-24.4" y2="239.234" stroke="rgb(255,0,0)" />
<line x1="-24.4" y1="239.234" x2="-29" y2="242.531" stroke="rgb(255,0,0)" />
<line x1="-29" y1="242.531" x2="-33.6" y2="245.917" stroke="rgb(255,0,0)" />
<line x1="-33.6" y1="245.917" x2="-38.2" y2="249.394" stroke="rgb(255,0,0)" />
<line x1="-38.2" y1="249.394" x2="-42.8" y2="252.961" stroke="rgb(255,0,0)" />
<line x1="-42.8" y1="252.961" x2="-47.4" y2="256.622" stroke="rgb(255,0,0)" />
<line x1="-47.4" y1="256.622" x2="-52" y2="260.376" stroke="rgb(255,0,0)" />
<line x1="-52" y1="260.376" x2="-56.6" y2="264.225" stroke="rgb(255,0,0)" />
<line x1="-56.6" y1="264.225" x2="-61.2" y2="268.171" stroke="rgb(255,0,0)" />
<line x1="-61.2" y1="268.171" x2="-65.8" y2="272.214" stroke="rgb(255,0,0)" />
<line x1="-65.8" y1="272.214" x2="-70.4" y2="276.355" stroke="rgb(255,0,0)" />
<line x1="-70.4" y1="276.355" x2="-75" y2="280.597" stroke="rgb(255,0,0)" />
<line x1="-75" y1="280.597" x2="-79.6" y2="284.939" stroke="rgb(255,0,0)" />
<line x1="-79.6" y1="284.939" x2="-84.2" y2="289.384" stroke="rgb(255,0,0)" />
<line x1="-84.2" y1="289.384" x2="-88.8" y2="293.931" stroke="rgb(255,0,0)" />
<line x1="-88.8" y1="293.931" x2="-93.4" y2="298.584" stroke="rgb(255,0,0)" />
<line x1="-93.4" y1="298.584" x2="-98" y2="303.342" stroke="rgb(255,0,0)" />
<line x1="-98" y1="303.342" x2="-102.6" y2="308.207" stroke="rgb(255,0,0)" />
<line x1="-102.6" y1="308.207" x2="-107.2" y2="313.18" stroke="rgb(255,0,0)" />
<line x1="-107.2" y1="313.18" x2="-111.8" y2="318.263" stroke="rgb(255,0,0)" />
<line x1="-111.8" y1="318.263" x2="-116.4" y2="323.456" stroke="rgb(255,0,0)" />
<line x1="-116.4" y1="323.456" x2="-121" y2="328.76" stroke="rgb(255,0,0)" />
<line x1="-121" y1="328.76" x2="-125.6" y2="334.178" stroke="rgb(255,0,0)" />
<line x1="-125.6" y1="334.178" x2="-130.2" y2="339.709" stroke="rgb(255,0,0)" />
<line x1="-130.2" y1="339.709" x2="-134.8" y2="345.356" stroke="rgb(255,0,0)" />
<line x1="-134.8" y1="345.356" x2="-139.4" y2="351.119" stroke="rgb(255,0,0)" />
<line x1="-139.4" y1="351.119" x2="-144" y2="357" stroke="rgb(255,0,0)" />
<line x1="316" y1="159" x2="311.4" y2="155.04" stroke="rgb(0,0,255)" />
<line x1="311.4" y1="155.04" x2="306.8" y2="151.08" stroke="rgb(0,0,255)" />
<line x1="306.8" y1="151.08" x2="302.2" y2="147.12" stroke="rgb(0,0,255)" />
<line x1="302.2" y1="147.12" x2="297.6" y2="143.16" stroke="rgb(0,0,255)" />
<line x1="297.6" y1="143.16" x2="293" y2="139.2" stroke="rgb(0,0,255)" />
<line x1="293" y1="139.2" x2="288.4" y2="135.24" stroke="rgb(0,0,255)" />
<line x1="288.4" y1="135.24" x2="283.8" y2="131.28" stroke="rgb(0,0,255)" />
<line x1="283.8" y1="131.28" x2="279.2" y2="127.32" stroke="rgb(0,0,255)" />
<line x1="279.2" y1="127.32" x2="274.6" y2="123.36" stroke="rgb(0,0,255)" />
<line x1="274.6" y1="123.36" x2="270" y2="119.4" stroke="rgb(0,0,255)" />
<line x1="270" y1="119.4" x2="265.4" y2="115.44" stroke="rgb(0,0,255)" />
<line x1="265.4" y1="115.44" x2="260.8" y2="111.48" stroke="rgb(0,0,255)" />
<line x1="260.8" y1="111.48" x2="256.2" y2="107.52" stroke="rgb(0,0,255)" />
<line x1="256.2" y1="107.52" x2="251.6" y2="103.56" stroke="rgb(0,0,255)" />
<line x1="251.6" y1="103.56" x2="247" y2="99.6" stroke="rgb(0,0,255)" />
<line x1="247" y1="99.6" x2="242.4" y2="95.64" stroke="rgb(0,0,255)" />
<line x1="242.4" y1="95.64" x2="237.8" y2="91.68" stroke="rgb(0,0,255)" />
<line x1="237.8" y1="91.68" x2="233.2" y2="87.72" stroke="rgb(0,0,255)" />
<line x1="233.2" y1="87.72" x2="228.6" y2="83.76" stroke="rgb(0,0,255)" />
<line x1="228.6" y1="83.76" x2="224" y2="79.8" stroke="rgb(0,0,255)" />
<line x1="224" y1="79.8" x2="219.4" y2="75.84" stroke="rgb(0,0,255)" />
<line x1="219.4" y1="75.84" x2="214.8" y2="71.88" stroke="rgb(0,0,255)" />
<line x1="214.8" y1="71.88" x2="210.2" y2="67.92" stroke="rgb(0,0,255)" />
<line x1="210.2" y1="67.92" x2="205.6" y2="63.96" stroke="rgb(0,0,255)" />
<line x1="205.6" y1="63.96" x2="201" y2="60" stroke="rgb(0,0,255)" />
<line x1="201" y1="60" x2="196.4" y2="56.04" stroke="rgb(0,0,255)" />
<line x1="196.4" y1="56.04" x2="191.8" y2="52.08" stroke="rgb(0,0,255)" />
<line x1="191.8" y1="52.08" x2="187.2" y2="48.12" stroke="rgb(0,0,255)" />
<line x1="187.2" y1="48.12" x2="182.6" y2="44.16" stroke="rgb(0,0,255)" />
<line x1="182.6" y1="44.16" x2="178" y2="40.2" stroke="rgb(0,0,255)" />
<line x1="178" y1="40.2" x2="173.4" y2="36.24" stroke="rgb(0,0,255)" />
<line x1="173.4" y1="36.24" x2="168.8" y2="32.28" stroke="rgb(0,0,255)" />
<line x1="168.8" y1="32.28" x2="164.2" y2="28.32" stroke="rgb(0,0,255)" />
<line x1="164.2" y1="28.32" x2="159.6" y2="24.36" stroke="rgb(0,0,255)" />
<line x1="159.6" y1="24.36" x2="155" y2="20.4" stroke="rgb(0,0,255)" />
<line x1="155" y1="20.4" x2="150.4" y2="16.44" stroke="rgb(0,0,255)" />
<line x1="150.4" y1="16.44" x2="145.8" y2="12.48" stroke="rgb(0,0,255)" />
<line x1="145.8" y1="12.48" x2="141.2" y2="8.52" stroke="rgb(0,0,255)" />
<line x1="141.2" y1="8.52" x2="136.6" y2="4.56001" stroke="rgb(0,0,255)" />
<line x1="136.6" y1="4.56001" x2="132" y2="0.600006" stroke="rgb(0,0,255)" />
<line x1="132" y1="0.600006" x2="127.4" y2="-3.36" stroke="rgb(0,0,255)" />
<line x1="127.4" y1="-3.36" x2="122.8" y2="-7.31999" stroke="rgb(0,0,255)" />
<line x1="122.8" y1="-7.31999" x2="118.2" y2="-11.28" stroke="rgb(0,0,255)" />
<line x1="118.2" y1="-11.28" x2="113.6" y2="-15.24" stroke="rgb(0,0,255)" />
<line x1="113.6" y1="-15.24" x2="109" y2="-19.2" stroke="rgb(0,0,255)" />
<line x1="109" y1="-19.2" x2="104.4" y2="-23.16" stroke="rgb(0,0,255)" />
<line x1="104.4" y1="-23.16" x2="99.8" y2="-27.12" stroke="rgb(0,0,255)" />
<line x1="99.8" y1="-27.12" x2="95.2" y2="-31.08" stroke="rgb(0,0,255)" />
<line x1="95.2" y1="-31.08" x2="90.6" y2="-35.04" stroke="rgb(0,0,255)" />
<line x1="90.6" y1="-35.04" x2="86" y2="-39" stroke="rgb(0,0,255)" />
<line x1="86" y1="-39" x2="81.4" y2="-42.96" stroke="rgb(0,0,255)" />
<line x1="81.4" y1="-42.96" x2="76.8" y2="-46.92" stroke="rgb(0,0,255)" />
<line x1="76.8" y1="-46.92" x2="72.2" y2="-50.88" stroke="rgb(0,0,255)" />
<line x1="72.2" y1="-50.88" x2="67.6" y2="-54.84" stroke="rgb(0,0,255)" />
<line x1="67.6" y1="-54.84" x2="63" y2="-58.8" stroke="rgb(0,0,255)" />
<line x1="63" y1="-58.8" x2="58.4" y2="-62.76" stroke="rgb(0,0,255)" />
<line x1="58.4" y1="-62.76" x2="53.8" y2="-66.72" stroke="rgb(0,0,255)" />
<line x1="53.8" y1="-66.72" x2="49.2" y2="-70.68" stroke="rgb(0,0,255)" />
<line x1="49.2" y1="-70.68" x2="44.6" y2="-74.64" stroke="rgb(0,0,255)" />
<line x1="44.6" y1="-74.64" x2="40" y2="-78.6" stroke="rgb(0,0,255)" />
<line x1="40" y1="-78.6" x2="35.4" y2="-82.56" stroke="rgb(0,0,255)" />
<line x1="35.4" y1="-82.56" x2="30.8" y2="-86.52" stroke="rgb(0,0,255)" />
<line x1="30.8" y1="-86.52" x2="26.2" y2="-90.48" stroke="rgb(0,0,255)" />
<line x1="26.2" y1="-90.48" x2="21.6" y2="-94.44" stroke="rgb(0,0,255)" />
<line x1="21.6" y1="-94.44" x2="17" y2="-98.4" stroke="rgb(0,0,255)" />
<line x1="17" y1="-98.4" x2="12.4" y2="-102.36" stroke="rgb(0,0,255)" />
<line x1="12.4" y1="-102.36" x2="7.80002" y2="-106.32" stroke="rgb(0,0,255)" />
<line x1="7.80002" y1="-106.32" x2="3.20001" y2="-110.28" stroke="rgb(0,0,255)" />
<line x1="3.20001" y1="-110.28" x2="-1.39999" y2="-114.24" stroke="rgb(0,0,255)" />
<line x1="-1.39999" y1="-114.24" x2="-6" y2="-118.2" stroke="rgb(0,0,255)" />
<line x1="-6" y1="-118.2" x2="-10.6" y2="-122.16" stroke="rgb(0,0,255)" />
<line x1="-10.6" y1="-122.16" x2="-15.2" y2="-126.12" stroke="rgb(0,0,255)" />
<line x1="-15.2" y1="-126.12" x2="-19.8" y2="-130.08" stroke="rgb(0,0,255)" />
<line x1="-19.8" y1="-130.08" x2="-24.4" y2="-134.04" stroke="rgb(0,0,255)" />
<line x1="-24.4" y1="-134.04" x2="-29" y2="-138" stroke="rgb(0,0,255)" />
<line x1="-29" y1="-138" x2="-33.6" y2="-141.96" stroke="rgb(0,0,255)" />
<line x1="-33.6" y1="-141.96" x2="-38.2" y2="-145.92" stroke="rgb(0,0,255)" />
<line x1="-38.2" y1="-145.92" x2="-42.8" y2="-149.88" stroke="rgb(0,0,255)" />
<line x1="-42.8" y1="-149.88" x2="-47.4" y2="-153.84" stroke="rgb(0,0,255)" />
<line x1="-47.4" y1="-153.84" x2="-52" y2="-157.8" stroke="rgb(0,0,255)" />
<line x1="-52" y1="-157.8" x2="-56.6" y2="-161.76" stroke="rgb(0,0,255)" />
<line x1="-56.6" y1="-161.76" x2="-61.2" y2="-165.72" stroke="rgb(0,0,255)" />
<line x1="-61.2" y1="-165.72" x2="-65.8" y2="-169.68" stroke="rgb(0,0,255)" />
<line x1="-65.8" y1="-169.68" x2="-70.4" y2="-173.64" stroke="rgb(0,0,255)" />
<line x1="-70.4" y1="-173.64" x2="-75" y2="-177.6" stroke="rgb(0,0,255)" />
<line x1="-75" y1="-177.6" x2="-79.6" y2="-181.56" stroke="rgb(0,0,255)" />
<line x1="-79.6" y1="-181.56" x2="-84.2" y2="-185.52" stroke="rgb(0,0,255)" />
<line x1="-84.2" y1="-185.52" x2="-88.8" y2="-189.48" stroke="rgb(0,0,255)" />
<line x1="-88.8" y1="-189.48" x2="-93.4" y2="-193.44" stroke="rgb(0,0,255)" />
<line x1="-93.4" y1="-193.44" x2="-98" y2="-197.4" stroke="rgb(0,0,255)" />
<line x1="-98" y1="-197.4" x2="-102.6" y2="-201.36" stroke="rgb(0,0,255)" />
<line x1="-102.6" y1="-201.36" x2="-107.2" y2="-205.32" stroke="rgb(0,0,255)" />
<line x1="-107.2" y1="-205.32" x2="-111.8" y2="-209.28" stroke="rgb(0,0,255)" />
<line x1="-111.8" y1="-209.28" x2="-116.4" y2="-213.24" stroke="rgb(0,0,255)" />
<line x1="-116.4" y1="-213.24" x2="-121" y2="-217.2" stroke="rgb(0,0,255)" />
<line x1="-121" y1="-217.2" x2="-125.6" y2="-221.16" stroke="rgb(0,0,255)" />
<line x1="-125.6" y1="-221.16" x2="-130.2" y2="-225.12" stroke="rgb(0,0,255)" />
<line x1="-130.2" y1="-225.12" x2="-134.8" y2="-229.08" stroke="rgb(0,0,255)" />
<line x1="-134.8" y1="-229.08" x2="-139.4" y2="-233.04" stroke="rgb(0,0,255)" />
<line x1="-139.4" y1="-233.04" x2="-144" y2="-237" stroke="rgb(0,0,255)" />
</svg>

