<?xml version="1.0" encoding="utf-8"?>
<svg version="1.1" baseProfile="full" width="300" height="300" xmlns="http://www.w3.org/2000/svg">
<clipPath>
<rect x="0" y="0" width="300" height="300" fill="rgb(0,0,0)" />
</clipPath>
<line x1="164.77" y1="20" x2="164.77" y2="258" stroke="rgb(200,200,200)" />
<line x1="279.77" y1="20" x2="279.77" y2="258" stroke="rgb(200,200,200)" />
<line x1="50" y1="258" x2="280" y2="258" stroke="rgb(200,200,200)" />
<line x1="50" y1="198.5" x2="280" y2="198.5" stroke="rgb(200,200,200)" />
<line x1="50" y1="139" x2="280" y2="139" stroke="rgb(200,200,200)" />
<line x1="50" y1="79.5" x2="280" y2="79.5" stroke="rgb(200,200,200)" />
<line x1="50" y1="20" x2="280" y2="20" stroke="rgb(200,200,200)" />
<line x1="50" y1="258" x2="280" y2="258" stroke="rgb(0,0,0)" />
<line x1="72.77" y1="258" x2="72.77" y2="261" stroke="rgb(0,0,0)" />
<line x1="95.77" y1="258" x2="95.77" y2="261" stroke="rgb(0,0,0)" />
<line x1="118.77" y1="258" x2="118.77" y2="261" stroke="rgb(0,0,0)" />
<line x1="141.77" y1="258" x2="141.77" y2="261" stroke="rgb(0,0,0)" />
<text x="164" y="282" fill="rgb(0,0,0)">
0.05</text>
<line x1="164.77" y1="258" x2="164.77" y2="263" stroke="rgb(0,0,0)" />
<line x1="187.77" y1="258" x2="187.77" y2="261" stroke="rgb(0,0,0)" />
<line x1="210.77" y1="258" x2="210.77" y2="261" stroke="rgb(0,0,0)" />
<line x1="233.77" y1="258" x2="233.77" y2="261" stroke="rgb(0,0,0)" />
<line x1="256.77" y1="258" x2="256.77" y2="261" stroke="rgb(0,0,0)" />
<text x="279" y="282" fill="rgb(0,0,0)">
0.10</text>
<line x1="279.77" y1="258" x2="279.77" y2="263" stroke="rgb(0,0,0)" />
<line x1="49.77" y1="20" x2="49.77" y2="258" stroke="rgb(0,0,0)" />
<text x="0" y="266" fill="rgb(0,0,0)">
-40</text>
<line x1="49" y1="258" x2="44" y2="258" stroke="rgb(0,0,0)" />
<line x1="49" y1="240.089" x2="46" y2="240.089" stroke="rgb(0,0,0)" />
<line x1="49" y1="229.611" x2="46" y2="229.611" stroke="rgb(0,0,0)" />
<line x1="49" y1="222.177" x2="46" y2="222.177" stroke="rgb(0,0,0)" />
<line x1="49" y1="216.411" x2="46" y2="216.411" stroke="rgb(0,0,0)" />
<line x1="49" y1="211.7" x2="46" y2="211.7" stroke="rgb(0,0,0)" />
<line x1="49" y1="207.717" x2="46" y2="207.717" stroke="rgb(0,0,0)" />
<line x1="49" y1="204.266" x2="46" y2="204.266" stroke="rgb(0,0,0)" />
<line x1="49" y1="201.223" x2="46" y2="201.223" stroke="rgb(0,0,0)" />
<text x="0" y="206" fill="rgb(0,0,0)">
-20</text>
<line x1="49" y1="198.5" x2="44" y2="198.5" stroke="rgb(0,0,0)" />
<line x1="49" y1="180.589" x2="46" y2="180.589" stroke="rgb(0,0,0)" />
<line x1="49" y1="170.111" x2="46" y2="170.111" stroke="rgb(0,0,0)" />
<line x1="49" y1="162.677" x2="46" y2="162.677" stroke="rgb(0,0,0)" />
<line x1="49" y1="156.911" x2="46" y2="156.911" stroke="rgb(0,0,0)" />
<line x1="49" y1="152.2" x2="46" y2="152.2" stroke="rgb(0,0,0)" />
<line x1="49" y1="148.217" x2="46" y2="148.217" stroke="rgb(0,0,0)" />
<line x1="49" y1="144.766" x2="46" y2="144.766" stroke="rgb(0,0,0)" />
<line x1="49" y1="141.723" x2="46" y2="141.723" stroke="rgb(0,0,0)" />
<text x="11" y="147" fill="rgb(0,0,0)">
0</text>
<line x1="49" y1="139" x2="44" y2="139" stroke="rgb(0,0,0)" />
<line x1="49" y1="121.089" x2="46" y2="121.089" stroke="rgb(0,0,0)" />
<line x1="49" y1="110.611" x2="46" y2="110.611" stroke="rgb(0,0,0)" />
<line x1="49" y1="103.177" x2="46" y2="103.177" stroke="rgb(0,0,0)" />
<line x1="49" y1="97.4113" x2="46" y2="97.4113" stroke="rgb(0,0,0)" />
<line x1="49" y1="92.7" x2="46" y2="92.7" stroke="rgb(0,0,0)" />
<line x1="49" y1="88.7167" x2="46" y2="88.7167" stroke="rgb(0,0,0)" />
<line x1="49" y1="85.2661" x2="46" y2="85.2661" stroke="rgb(0,0,0)" />
<line x1="49" y1="82.2226" x2="46" y2="82.2226" stroke="rgb(0,0,0)" />
<text x="5" y="87" fill="rgb(0,0,0)">
20</text>
<line x1="49" y1="79.5" x2="44" y2="79.5" stroke="rgb(0,0,0)" />
<line x1="49" y1="61.5887" x2="46" y2="61.5887" stroke="rgb(0,0,0)" />
<line x1="49" y1="51.1113" x2="46" y2="51.1113" stroke="rgb(0,0,0)" />
<line x1="49" y1="43.6774" x2="46" y2="43.6774" stroke="rgb(0,0,0)" />
<line x1="49" y1="37.9113" x2="46" y2="37.9113" stroke="rgb(0,0,0)" />
<line x1="49" y1="33.2" x2="46" y2="33.2" stroke="rgb(0,0,0)" />
<line x1="49" y1="29.2167" x2="46" y2="29.2167" stroke="rgb(0,0,0)" />
<line x1="49" y1="25.7661" x2="46" y2="25.7661" stroke="rgb(0,0,0)" />
<line x1="49" y1="22.7226" x2="46" y2="22.7226" stroke="rgb(0,0,0)" />
<text x="5" y="28" fill="rgb(0,0,0)">
40</text>
<line x1="49" y1="20" x2="44" y2="20" stroke="rgb(0,0,0)" />
<text x="70" y="36" fill="rgb(100,100,200)">
foo</text>
<clipPath>
<rect x="50" y="20" width="230" height="238" fill="rgb(0,0,0)" />
</clipPath>
<line x1="50" y1="258" x2="52.3" y2="257.743" stroke="rgb(100,100,200)" />
<line x1="52.3" y1="257.743" x2="54.6" y2="256.011" stroke="rgb(100,100,200)" />
<line x1="54.6" y1="256.011" x2="56.9" y2="251.824" stroke="rgb(100,100,200)" />
<line x1="56.9" y1="251.824" x2="59.2" y2="245.217" stroke="rgb(100,100,200)" />
<line x1="59.2" y1="245.217" x2="61.5" y2="237.045" stroke="rgb(100,100,200)" />
<line x1="61.5" y1="237.045" x2="63.8" y2="228.269" stroke="rgb(100,100,200)" />
<line x1="63.8" y1="228.269" x2="66.1" y2="219.539" stroke="rgb(100,100,200)" />
<line x1="66.1" y1="219.539" x2="68.4" y2="211.188" stroke="rgb(100,100,200)" />
<line x1="68.4" y1="211.188" x2="70.7" y2="203.346" stroke="rgb(100,100,200)" />
<line x1="70.7" y1="203.346" x2="73" y2="196.037" stroke="rgb(100,100,200)" />
<line x1="73" y1="196.037" x2="75.3" y2="189.239" stroke="rgb(100,100,200)" />
<line x1="75.3" y1="189.239" x2="77.6" y2="182.912" stroke="rgb(100,100,200)" />
<line x1="77.6" y1="182.912" x2="79.9" y2="177.011" stroke="rgb(100,100,200)" />
<line x1="79.9" y1="177.011" x2="82.2" y2="171.491" stroke="rgb(100,100,200)" />
<line x1="82.2" y1="171.491" x2="84.5" y2="166.313" stroke="rgb(100,100,200)" />
<line x1="84.5" y1="166.313" x2="86.8" y2="161.441" stroke="rgb(100,100,200)" />
<line x1="86.8" y1="161.441" x2="89.1" y2="156.844" stroke="rgb(100,100,200)" />
<line x1="89.1" y1="156.844" x2="91.4" y2="152.495" stroke="rgb(100,100,200)" />
<line x1="91.4" y1="152.495" x2="93.7" y2="148.368" stroke="rgb(100,100,200)" />
<line x1="93.7" y1="148.368" x2="96" y2="144.445" stroke="rgb(100,100,200)" />
<line x1="96" y1="144.445" x2="98.3" y2="140.706" stroke="rgb(100,100,200)" />
<line x1="98.3" y1="140.706" x2="100.6" y2="137.136" stroke="rgb(100,100,200)" />
<line x1="100.6" y1="137.136" x2="102.9" y2="133.72" stroke="rgb(100,100,200)" />
<line x1="102.9" y1="133.72" x2="105.2" y2="130.446" stroke="rgb(100,100,200)" />
<line x1="105.2" y1="130.446" x2="107.5" y2="127.303" stroke="rgb(100,100,200)" />
<line x1="107.5" y1="127.303" x2="109.8" y2="124.281" stroke="rgb(100,100,200)" />
<line x1="109.8" y1="124.281" x2="112.1" y2="121.371" stroke="rgb(100,100,200)" />
<line x1="112.1" y1="121.371" x2="114.4" y2="118.565" stroke="rgb(100,100,200)" />
<line x1="114.4" y1="118.565" x2="116.7" y2="115.856" stroke="rgb(100,100,200)" />
<line x1="116.7" y1="115.856" x2="119" y2="113.238" stroke="rgb(100,100,200)" />
<line x1="119" y1="113.238" x2="121.3" y2="110.705" stroke="rgb(100,100,200)" />
<line x1="121.3" y1="110.705" x2="123.6" y2="108.252" stroke="rgb(100,100,200)" />
<line x1="123.6" y1="108.252" x2="125.9" y2="105.873" stroke="rgb(100,100,200)" />
<line x1="125.9" y1="105.873" x2="128.2" y2="103.565" stroke="rgb(100,100,200)" />
<line x1="128.2" y1="103.565" x2="130.5" y2="101.324" stroke="rgb(100,100,200)" />
<line x1="130.5" y1="101.324" x2="132.8" y2="99.1447" stroke="rgb(100,100,200)" />
<line x1="132.8" y1="99.1447" x2="135.1" y2="97.025" stroke="rgb(100,100,200)" />
<line x1="135.1" y1="97.025" x2="137.4" y2="94.9616" stroke="rgb(100,100,200)" />
<line x1="137.4" y1="94.9616" x2="139.7" y2="92.9514" stroke="rgb(100,100,200)" />
<line x1="139.7" y1="92.9514" x2="142" y2="90.9919" stroke="rgb(100,100,200)" />
<line x1="142" y1="90.9919" x2="144.3" y2="89.0806" stroke="rgb(100,100,200)" />
<line x1="144.3" y1="89.0806" x2="146.6" y2="87.2151" stroke="rgb(100,100,200)" />
<line x1="146.6" y1="87.2151" x2="148.9" y2="85.3934" stroke="rgb(100,100,200)" />
<line x1="148.9" y1="85.3934" x2="151.2" y2="83.6134" stroke="rgb(100,100,200)" />
<line x1="151.2" y1="83.6134" x2="153.5" y2="81.8732" stroke="rgb(100,100,200)" />
<line x1="153.5" y1="81.8732" x2="155.8" y2="80.1712" stroke="rgb(100,100,200)" />
<line x1="155.8" y1="80.1712" x2="158.1" y2="78.5057" stroke="rgb(100,100,200)" />
<line x1="158.1" y1="78.5057" x2="160.4" y2="76.8751" stroke="rgb(100,100,200)" />
<line x1="160.4" y1="76.8751" x2="162.7" y2="75.278" stroke="rgb(100,100,200)" />
<line x1="162.7" y1="75.278" x2="165" y2="73.7132" stroke="rgb(100,100,200)" />
<line x1="165" y1="73.7132" x2="167.3" y2="72.1793" stroke="rgb(100,100,200)" />
<line x1="167.3" y1="72.1793" x2="169.6" y2="70.675" stroke="rgb(100,100,200)" />
<line x1="169.6" y1="70.675" x2="171.9" y2="69.1994" stroke="rgb(100,100,200)" />
<line x1="171.9" y1="69.1994" x2="174.2" y2="67.7513" stroke="rgb(100,100,200)" />
<line x1="174.2" y1="67.7513" x2="176.5" y2="66.3297" stroke="rgb(100,100,200)" />
<line x1="176.5" y1="66.3297" x2="178.8" y2="64.9337" stroke="rgb(100,100,200)" />
<line x1="178.8" y1="64.9337" x2="181.1" y2="63.5624" stroke="rgb(100,100,200)" />
<line x1="181.1" y1="63.5624" x2="183.4" y2="62.2149" stroke="rgb(100,100,200)" />
<line x1="183.4" y1="62.2149" x2="185.7" y2="60.8903" stroke="rgb(100,100,200)" />
<line x1="185.7" y1="60.8903" x2="188" y2="59.588" stroke="rgb(100,100,200)" />
<line x1="188" y1="59.588" x2="190.3" y2="58.3072" stroke="rgb(100,100,200)" />
<line x1="190.3" y1="58.3072" x2="192.6" y2="57.0472" stroke="rgb(100,100,200)" />
<line x1="192.6" y1="57.0472" x2="194.9" y2="55.8074" stroke="rgb(100,100,200)" />
<line x1="194.9" y1="55.8074" x2="197.2" y2="54.587" stroke="rgb(100,100,200)" />
<line x1="197.2" y1="54.587" x2="199.5" y2="53.3856" stroke="rgb(100,100,200)" />
<line x1="199.5" y1="53.3856" x2="201.8" y2="52.2024" stroke="rgb(100,100,200)" />
<line x1="201.8" y1="52.2024" x2="204.1" y2="51.0371" stroke="rgb(100,100,200)" />
<line x1="204.1" y1="51.0371" x2="206.4" y2="49.8889" stroke="rgb(100,100,200)" />
<line x1="206.4" y1="49.8889" x2="208.7" y2="48.7576" stroke="rgb(100,100,200)" />
<line x1="208.7" y1="48.7576" x2="211" y2="47.6425" stroke="rgb(100,100,200)" />
<line x1="211" y1="47.6425" x2="213.3" y2="46.5432" stroke="rgb(100,100,200)" />
<line x1="213.3" y1="46.5432" x2="215.6" y2="45.4592" stroke="rgb(100,100,200)" />
<line x1="215.6" y1="45.4592" x2="217.9" y2="44.3902" stroke="rgb(100,100,200)" />
<line x1="217.9" y1="44.3902" x2="220.2" y2="43.3358" stroke="rgb(100,100,200)" />
<line x1="220.2" y1="43.3358" x2="222.5" y2="42.2954" stroke="rgb(100,100,200)" />
<line x1="222.5" y1="42.2954" x2="224.8" y2="41.2689" stroke="rgb(100,100,200)" />
<line x1="224.8" y1="41.2689" x2="227.1" y2="40.2558" stroke="rgb(100,100,200)" />
<line x1="227.1" y1="40.2558" x2="229.4" y2="39.2557" stroke="rgb(100,100,200)" />
<line x1="229.4" y1="39.2557" x2="231.7" y2="38.2683" stroke="rgb(100,100,200)" />
<line x1="231.7" y1="38.2683" x2="234" y2="37.2934" stroke="rgb(100,100,200)" />
<line x1="234" y1="37.2934" x2="236.3" y2="36.3306" stroke="rgb(100,100,200)" />
<line x1="236.3" y1="36.3306" x2="238.6" y2="35.3795" stroke="rgb(100,100,200)" />
<line x1="238.6" y1="35.3795" x2="240.9" y2="34.44" stroke="rgb(100,100,200)" />
<line x1="240.9" y1="34.44" x2="243.2" y2="33.5118" stroke="rgb(100,100,200)" />
<line x1="243.2" y1="33.5118" x2="245.5" y2="32.5945" stroke="rgb(100,100,200)" />
<line x1="245.5" y1="32.5945" x2="247.8" y2="31.688" stroke="rgb(100,100,200)" />
<line x1="247.8" y1="31.688" x2="250.1" y2="30.7919" stroke="rgb(100,100,200)" />
<line x1="250.1" y1="30.7919" x2="252.4" y2="29.9061" stroke="rgb(100,100,200)" />
<line x1="252.4" y1="29.9061" x2="254.7" y2="29.0302" stroke="rgb(100,100,200)" />
<line x1="254.7" y1="29.0302" x2="257" y2="28.1642" stroke="rgb(100,100,200)" />
<line x1="257" y1="28.1642" x2="259.3" y2="27.3077" stroke="rgb(100,100,200)" />
<line x1="259.3" y1="27.3077" x2="261.6" y2="26.4605" stroke="rgb(100,100,200)" />
<line x1="261.6" y1="26.4605" x2="263.9" y2="25.6226" stroke="rgb(100,100,200)" />
<line x1="263.9" y1="25.6226" x2="266.2" y2="24.7936" stroke="rgb(100,100,200)" />
<line x1="266.2" y1="24.7936" x2="268.5" y2="23.9733" stroke="rgb(100,100,200)" />
<line x1="268.5" y1="23.9733" x2="270.8" y2="23.1617" stroke="rgb(100,100,200)" />
<line x1="270.8" y1="23.1617" x2="273.1" y2="22.3584" stroke="rgb(100,100,200)" />
<line x1="273.1" y1="22.3584" x2="275.4" y2="21.5634" stroke="rgb(100,100,200)" />
<line x1="275.4" y1="21.5634" x2="277.7" y2="20.7765" stroke="rgb(100,100,200)" />
<line x1="277.7" y1="20.7765" x2="280" y2="19.9974" stroke="rgb(100,100,200)" />
</svg>

