<?xml version="1.0" encoding="utf-8"?>
<svg version="1.1" baseProfile="full" width="300" height="300" xmlns="http://www.w3.org/2000/svg">
<clipPath>
<rect x="0" y="0" width="300" height="300" fill="rgb(0,0,0)" />
</clipPath>
<rect x="0" y="0" width="300" height="300" fill="rgb(200,200,200)" />
<text x="94" y="4" fill="rgb(0,0,0)">
narrow margins</text>
<line x1="10" y1="290" x2="290" y2="290" stroke="rgb(0,0,0)" />
<text x="10" y="314" fill="rgb(0,0,0)">
0</text>
<line x1="10" y1="290" x2="10" y2="295" stroke="rgb(0,0,0)" />
<line x1="21.2" y1="290" x2="21.2" y2="293" stroke="rgb(0,0,0)" />
<line x1="32.4" y1="290" x2="32.4" y2="293" stroke="rgb(0,0,0)" />
<line x1="43.6" y1="290" x2="43.6" y2="293" stroke="rgb(0,0,0)" />
<line x1="54.8" y1="290" x2="54.8" y2="293" stroke="rgb(0,0,0)" />
<text x="66" y="314" fill="rgb(0,0,0)">
20</text>
<line x1="66" y1="290" x2="66" y2="295" stroke="rgb(0,0,0)" />
<line x1="77.2" y1="290" x2="77.2" y2="293" stroke="rgb(0,0,0)" />
<line x1="88.4" y1="290" x2="88.4" y2="293" stroke="rgb(0,0,0)" />
<line x1="99.6" y1="290" x2="99.6" y2="293" stroke="rgb(0,0,0)" />
<line x1="110.8" y1="290" x2="110.8" y2="293" stroke="rgb(0,0,0)" />
<text x="122" y="314" fill="rgb(0,0,0)">
40</text>
<line x1="122" y1="290" x2="122" y2="295" stroke="rgb(0,0,0)" />
<line x1="133.2" y1="290" x2="133.2" y2="293" stroke="rgb(0,0,0)" />
<line x1="144.4" y1="290" x2="144.4" y2="293" stroke="rgb(0,0,0)" />
<line x1="155.6" y1="290" x2="155.6" y2="293" stroke="rgb(0,0,0)" />
<line x1="166.8" y1="290" x2="166.8" y2="293" stroke="rgb(0,0,0)" />
<text x="178" y="314" fill="rgb(0,0,0)">
60</text>
<line x1="178" y1="290" x2="178" y2="295" stroke="rgb(0,0,0)" />
<line x1="189.2" y1="290" x2="189.2" y2="293" stroke="rgb(0,0,0)" />
<line x1="200.4" y1="290" x2="200.4" y2="293" stroke="rgb(0,0,0)" />
<line x1="211.6" y1="290" x2="211.6" y2="293" stroke="rgb(0,0,0)" />
<line x1="222.8" y1="290" x2="222.8" y2="293" stroke="rgb(0,0,0)" />
<text x="234" y="314" fill="rgb(0,0,0)">
80</text>
<line x1="234" y1="290" x2="234" y2="295" stroke="rgb(0,0,0)" />
<line x1="245.2" y1="290" x2="245.2" y2="293" stroke="rgb(0,0,0)" />
<line x1="256.4" y1="290" x2="256.4" y2="293" stroke="rgb(0,0,0)" />
<line x1="267.6" y1="290" x2="267.6" y2="293" stroke="rgb(0,0,0)" />
<line x1="278.8" y1="290" x2="278.8" y2="293" stroke="rgb(0,0,0)" />
<text x="290" y="314" fill="rgb(0,0,0)">
100</text>
<line x1="290" y1="290" x2="290" y2="295" stroke="rgb(0,0,0)" />
<line x1="10" y1="20" x2="10" y2="290" stroke="rgb(0,0,0)" />
<text x="-39" y="298" fill="rgb(0,0,0)">
0.0</text>
<line x1="10" y1="290" x2="4" y2="290" stroke="rgb(0,0,0)" />
<line x1="10" y1="279.2" x2="7" y2="279.2" stroke="rgb(0,0,0)" />
<line x1="10" y1="268.4" x2="7" y2="268.4" stroke="rgb(0,0,0)" />
<line x1="10" y1="257.6" x2="7" y2="257.6" stroke="rgb(0,0,0)" />
<line x1="10" y1="246.8" x2="7" y2="246.8" stroke="rgb(0,0,0)" />
<text x="-39" y="244" fill="rgb(0,0,0)">
0.2</text>
<line x1="10" y1="236" x2="4" y2="236" stroke="rgb(0,0,0)" />
<line x1="10" y1="225.2" x2="7" y2="225.2" stroke="rgb(0,0,0)" />
<line x1="10" y1="214.4" x2="7" y2="214.4" stroke="rgb(0,0,0)" />
<line x1="10" y1="203.6" x2="7" y2="203.6" stroke="rgb(0,0,0)" />
<line x1="10" y1="192.8" x2="7" y2="192.8" stroke="rgb(0,0,0)" />
<text x="-39" y="190" fill="rgb(0,0,0)">
0.4</text>
<line x1="10" y1="182" x2="4" y2="182" stroke="rgb(0,0,0)" />
<line x1="10" y1="171.2" x2="7" y2="171.2" stroke="rgb(0,0,0)" />
<line x1="10" y1="160.4" x2="7" y2="160.4" stroke="rgb(0,0,0)" />
<line x1="10" y1="149.6" x2="7" y2="149.6" stroke="rgb(0,0,0)" />
<line x1="10" y1="138.8" x2="7" y2="138.8" stroke="rgb(0,0,0)" />
<text x="-39" y="136" fill="rgb(0,0,0)">
0.6</text>
<line x1="10" y1="128" x2="4" y2="128" stroke="rgb(0,0,0)" />
<line x1="10" y1="117.2" x2="7" y2="117.2" stroke="rgb(0,0,0)" />
<line x1="10" y1="106.4" x2="7" y2="106.4" stroke="rgb(0,0,0)" />
<line x1="10" y1="95.6" x2="7" y2="95.6" stroke="rgb(0,0,0)" />
<line x1="10" y1="84.8" x2="7" y2="84.8" stroke="rgb(0,0,0)" />
<text x="-39" y="81" fill="rgb(0,0,0)">
0.8</text>
<line x1="10" y1="74" x2="4" y2="74" stroke="rgb(0,0,0)" />
<line x1="10" y1="63.2" x2="7" y2="63.2" stroke="rgb(0,0,0)" />
<line x1="10" y1="52.4" x2="7" y2="52.4" stroke="rgb(0,0,0)" />
<line x1="10" y1="41.6" x2="7" y2="41.6" stroke="rgb(0,0,0)" />
<line x1="10" y1="30.8" x2="7" y2="30.8" stroke="rgb(0,0,0)" />
<text x="-38" y="27" fill="rgb(0,0,0)">
1.0</text>
<line x1="10" y1="20" x2="4" y2="20" stroke="rgb(0,0,0)" />
<text x="30" y="36" fill="rgb(255,0,0)">
plot 0</text>
<clipPath>
<rect x="10" y="20" width="280" height="270" fill="rgb(0,0,0)" />
</clipPath>
<line x1="10" y1="290" x2="12.8" y2="290" stroke="rgb(255,0,0)" />
<line x1="12.8" y1="290" x2="15.6" y2="289.998" stroke="rgb(255,0,0)" />
<line x1="15.6" y1="289.998" x2="18.4" y2="289.993" stroke="rgb(255,0,0)" />
<line x1="18.4" y1="289.993" x2="21.2" y2="289.983" stroke="rgb(255,0,0)" />
<line x1="21.2" y1="289.983" x2="24" y2="289.966" stroke="rgb(255,0,0)" />
<line x1="24" y1="289.966" x2="26.8" y2="289.942" stroke="rgb(255,0,0)" />
<line x1="26.8" y1="289.942" x2="29.6" y2="289.907" stroke="rgb(255,0,0)" />
<line x1="29.6" y1="289.907" x2="32.4" y2="289.862" stroke="rgb(255,0,0)" />
<line x1="32.4" y1="289.862" x2="35.2" y2="289.803" stroke="rgb(255,0,0)" />
<line x1="35.2" y1="289.803" x2="38" y2="289.73" stroke="rgb(255,0,0)" />
<line x1="38" y1="289.73" x2="40.8" y2="289.641" stroke="rgb(255,0,0)" />
<line x1="40.8" y1="289.641" x2="43.6" y2="289.533" stroke="rgb(255,0,0)" />
<line x1="43.6" y1="289.533" x2="46.4" y2="289.407" stroke="rgb(255,0,0)" />
<line x1="46.4" y1="289.407" x2="49.2" y2="289.259" stroke="rgb(255,0,0)" />
<line x1="49.2" y1="289.259" x2="52" y2="289.089" stroke="rgb(255,0,0)" />
<line x1="52" y1="289.089" x2="54.8" y2="288.894" stroke="rgb(255,0,0)" />
<line x1="54.8" y1="288.894" x2="57.6" y2="288.673" stroke="rgb(255,0,0)" />
<line x1="57.6" y1="288.673" x2="60.4" y2="288.425" stroke="rgb(255,0,0)" />
<line x1="60.4" y1="288.425" x2="63.2" y2="288.148" stroke="rgb(255,0,0)" />
<line x1="63.2" y1="288.148" x2="66" y2="287.84" stroke="rgb(255,0,0)" />
<line x1="66" y1="287.84" x2="68.8" y2="287.5" stroke="rgb(255,0,0)" />
<line x1="68.8" y1="287.5" x2="71.6" y2="287.125" stroke="rgb(255,0,0)" />
<line x1="71.6" y1="287.125" x2="74.4" y2="286.715" stroke="rgb(255,0,0)" />
<line x1="74.4" y1="286.715" x2="77.2" y2="286.268" stroke="rgb(255,0,0)" />
<line x1="77.2" y1="286.268" x2="80" y2="285.781" stroke="rgb(255,0,0)" />
<line x1="80" y1="285.781" x2="82.8" y2="285.254" stroke="rgb(255,0,0)" />
<line x1="82.8" y1="285.254" x2="85.6" y2="284.686" stroke="rgb(255,0,0)" />
<line x1="85.6" y1="284.686" x2="88.4" y2="284.073" stroke="rgb(255,0,0)" />
<line x1="88.4" y1="284.073" x2="91.2" y2="283.415" stroke="rgb(255,0,0)" />
<line x1="91.2" y1="283.415" x2="94" y2="282.71" stroke="rgb(255,0,0)" />
<line x1="94" y1="282.71" x2="96.8" y2="281.956" stroke="rgb(255,0,0)" />
<line x1="96.8" y1="281.956" x2="99.6" y2="281.153" stroke="rgb(255,0,0)" />
<line x1="99.6" y1="281.153" x2="102.4" y2="280.297" stroke="rgb(255,0,0)" />
<line x1="102.4" y1="280.297" x2="105.2" y2="279.388" stroke="rgb(255,0,0)" />
<line x1="105.2" y1="279.388" x2="108" y2="278.424" stroke="rgb(255,0,0)" />
<line x1="108" y1="278.424" x2="110.8" y2="277.403" stroke="rgb(255,0,0)" />
<line x1="110.8" y1="277.403" x2="113.6" y2="276.324" stroke="rgb(255,0,0)" />
<line x1="113.6" y1="276.324" x2="116.4" y2="275.185" stroke="rgb(255,0,0)" />
<line x1="116.4" y1="275.185" x2="119.2" y2="273.984" stroke="rgb(255,0,0)" />
<line x1="119.2" y1="273.984" x2="122" y2="272.72" stroke="rgb(255,0,0)" />
<line x1="122" y1="272.72" x2="124.8" y2="271.391" stroke="rgb(255,0,0)" />
<line x1="124.8" y1="271.391" x2="127.6" y2="269.996" stroke="rgb(255,0,0)" />
<line x1="127.6" y1="269.996" x2="130.4" y2="268.533" stroke="rgb(255,0,0)" />
<line x1="130.4" y1="268.533" x2="133.2" y2="267" stroke="rgb(255,0,0)" />
<line x1="133.2" y1="267" x2="136" y2="265.396" stroke="rgb(255,0,0)" />
<line x1="136" y1="265.396" x2="138.8" y2="263.719" stroke="rgb(255,0,0)" />
<line x1="138.8" y1="263.719" x2="141.6" y2="261.968" stroke="rgb(255,0,0)" />
<line x1="141.6" y1="261.968" x2="144.4" y2="260.14" stroke="rgb(255,0,0)" />
<line x1="144.4" y1="260.14" x2="147.2" y2="258.235" stroke="rgb(255,0,0)" />
<line x1="147.2" y1="258.235" x2="150" y2="256.25" stroke="rgb(255,0,0)" />
<line x1="150" y1="256.25" x2="152.8" y2="254.184" stroke="rgb(255,0,0)" />
<line x1="152.8" y1="254.184" x2="155.6" y2="252.036" stroke="rgb(255,0,0)" />
<line x1="155.6" y1="252.036" x2="158.4" y2="249.803" stroke="rgb(255,0,0)" />
<line x1="158.4" y1="249.803" x2="161.2" y2="247.485" stroke="rgb(255,0,0)" />
<line x1="161.2" y1="247.485" x2="164" y2="245.079" stroke="rgb(255,0,0)" />
<line x1="164" y1="245.079" x2="166.8" y2="242.584" stroke="rgb(255,0,0)" />
<line x1="166.8" y1="242.584" x2="169.6" y2="239.998" stroke="rgb(255,0,0)" />
<line x1="169.6" y1="239.998" x2="172.4" y2="237.32" stroke="rgb(255,0,0)" />
<line x1="172.4" y1="237.32" x2="175.2" y2="234.548" stroke="rgb(255,0,0)" />
<line x1="175.2" y1="234.548" x2="178" y2="231.68" stroke="rgb(255,0,0)" />
<line x1="178" y1="231.68" x2="180.8" y2="228.715" stroke="rgb(255,0,0)" />
<line x1="180.8" y1="228.715" x2="183.6" y2="225.651" stroke="rgb(255,0,0)" />
<line x1="183.6" y1="225.651" x2="186.4" y2="222.487" stroke="rgb(255,0,0)" />
<line x1="186.4" y1="222.487" x2="189.2" y2="219.221" stroke="rgb(255,0,0)" />
<line x1="189.2" y1="219.221" x2="192" y2="215.851" stroke="rgb(255,0,0)" />
<line x1="192" y1="215.851" x2="194.8" y2="212.376" stroke="rgb(255,0,0)" />
<line x1="194.8" y1="212.376" x2="197.6" y2="208.794" stroke="rgb(255,0,0)" />
<line x1="197.6" y1="208.794" x2="200.4" y2="205.103" stroke="rgb(255,0,0)" />
<line x1="200.4" y1="205.103" x2="203.2" y2="201.303" stroke="rgb(255,0,0)" />
<line x1="203.2" y1="201.303" x2="206" y2="197.39" stroke="rgb(255,0,0)" />
<line x1="206" y1="197.39" x2="208.8" y2="193.364" stroke="rgb(255,0,0)" />
<line x1="208.8" y1="193.364" x2="211.6" y2="189.223" stroke="rgb(255,0,0)" />
<line x1="211.6" y1="189.223" x2="214.4" y2="184.965" stroke="rgb(255,0,0)" />
<line x1="214.4" y1="184.965" x2="217.2" y2="180.59" stroke="rgb(255,0,0)" />
<line x1="217.2" y1="180.59" x2="220" y2="176.094" stroke="rgb(255,0,0)" />
<line x1="220" y1="176.094" x2="222.8" y2="171.476" stroke="rgb(255,0,0)" />
<line x1="222.8" y1="171.476" x2="225.6" y2="166.736" stroke="rgb(255,0,0)" />
<line x1="225.6" y1="166.736" x2="228.4" y2="161.871" stroke="rgb(255,0,0)" />
<line x1="228.4" y1="161.871" x2="231.2" y2="156.879" stroke="rgb(255,0,0)" />
<line x1="231.2" y1="156.879" x2="234" y2="151.76" stroke="rgb(255,0,0)" />
<line x1="234" y1="151.76" x2="236.8" y2="146.511" stroke="rgb(255,0,0)" />
<line x1="236.8" y1="146.511" x2="239.6" y2="141.131" stroke="rgb(255,0,0)" />
<line x1="239.6" y1="141.131" x2="242.4" y2="135.618" stroke="rgb(255,0,0)" />
<line x1="242.4" y1="135.618" x2="245.2" y2="129.97" stroke="rgb(255,0,0)" />
<line x1="245.2" y1="129.97" x2="248" y2="124.186" stroke="rgb(255,0,0)" />
<line x1="248" y1="124.186" x2="250.8" y2="118.265" stroke="rgb(255,0,0)" />
<line x1="250.8" y1="118.265" x2="253.6" y2="112.204" stroke="rgb(255,0,0)" />
<line x1="253.6" y1="112.204" x2="256.4" y2="106.003" stroke="rgb(255,0,0)" />
<line x1="256.4" y1="106.003" x2="259.2" y2="99.6584" stroke="rgb(255,0,0)" />
<line x1="259.2" y1="99.6584" x2="262" y2="93.17" stroke="rgb(255,0,0)" />
<line x1="262" y1="93.17" x2="264.8" y2="86.5358" stroke="rgb(255,0,0)" />
<line x1="264.8" y1="86.5358" x2="267.6" y2="79.7542" stroke="rgb(255,0,0)" />
<line x1="267.6" y1="79.7542" x2="270.4" y2="72.8236" stroke="rgb(255,0,0)" />
<line x1="270.4" y1="72.8236" x2="273.2" y2="65.7423" stroke="rgb(255,0,0)" />
<line x1="273.2" y1="65.7423" x2="276" y2="58.5087" stroke="rgb(255,0,0)" />
<line x1="276" y1="58.5087" x2="278.8" y2="51.1213" stroke="rgb(255,0,0)" />
<line x1="278.8" y1="51.1213" x2="281.6" y2="43.5783" stroke="rgb(255,0,0)" />
<line x1="281.6" y1="43.5783" x2="284.4" y2="35.8782" stroke="rgb(255,0,0)" />
<line x1="284.4" y1="35.8782" x2="287.2" y2="28.0193" stroke="rgb(255,0,0)" />
<line x1="287.2" y1="28.0193" x2="290" y2="20" stroke="rgb(255,0,0)" />
</svg>

