<?xml version="1.0" encoding="utf-8"?>
<svg version="1.1" baseProfile="full" width="300" height="300" xmlns="http://www.w3.org/2000/svg">
<clipPath>
<rect x="0" y="0" width="300" height="300" fill="rgb(0,0,0)" />
</clipPath>
<text x="110" y="4" fill="rgb(0,0,0)">
line styles</text>
<line x1="50" y1="270.526" x2="280" y2="270.526" stroke="rgb(0,0,0)" />
<line x1="70.7" y1="270" x2="70.7" y2="273" stroke="rgb(0,0,0)" />
<line x1="93.7" y1="270" x2="93.7" y2="273" stroke="rgb(0,0,0)" />
<line x1="116.7" y1="270" x2="116.7" y2="273" stroke="rgb(0,0,0)" />
<line x1="139.7" y1="270" x2="139.7" y2="273" stroke="rgb(0,0,0)" />
<text x="162" y="294" fill="rgb(0,0,0)">
0.005</text>
<line x1="162.7" y1="270" x2="162.7" y2="275" stroke="rgb(0,0,0)" />
<line x1="185.7" y1="270" x2="185.7" y2="273" stroke="rgb(0,0,0)" />
<line x1="208.7" y1="270" x2="208.7" y2="273" stroke="rgb(0,0,0)" />
<line x1="231.7" y1="270" x2="231.7" y2="273" stroke="rgb(0,0,0)" />
<line x1="254.7" y1="270" x2="254.7" y2="273" stroke="rgb(0,0,0)" />
<text x="277" y="294" fill="rgb(0,0,0)">
0.010</text>
<line x1="277.7" y1="270" x2="277.7" y2="275" stroke="rgb(0,0,0)" />
<line x1="47.7" y1="20" x2="47.7" y2="258" stroke="rgb(0,0,0)" />
<line x1="47" y1="255.495" x2="44" y2="255.495" stroke="rgb(0,0,0)" />
<line x1="47" y1="250.484" x2="44" y2="250.484" stroke="rgb(0,0,0)" />
<text x="-7" y="253" fill="rgb(0,0,0)">
0.02</text>
<line x1="47" y1="245.474" x2="42" y2="245.474" stroke="rgb(0,0,0)" />
<line x1="47" y1="240.463" x2="44" y2="240.463" stroke="rgb(0,0,0)" />
<line x1="47" y1="235.453" x2="44" y2="235.453" stroke="rgb(0,0,0)" />
<line x1="47" y1="230.442" x2="44" y2="230.442" stroke="rgb(0,0,0)" />
<line x1="47" y1="225.432" x2="44" y2="225.432" stroke="rgb(0,0,0)" />
<text x="-7" y="228" fill="rgb(0,0,0)">
0.04</text>
<line x1="47" y1="220.421" x2="42" y2="220.421" stroke="rgb(0,0,0)" />
<line x1="47" y1="215.411" x2="44" y2="215.411" stroke="rgb(0,0,0)" />
<line x1="47" y1="210.4" x2="44" y2="210.4" stroke="rgb(0,0,0)" />
<line x1="47" y1="205.389" x2="44" y2="205.389" stroke="rgb(0,0,0)" />
<line x1="47" y1="200.379" x2="44" y2="200.379" stroke="rgb(0,0,0)" />
<text x="-7" y="203" fill="rgb(0,0,0)">
0.06</text>
<line x1="47" y1="195.368" x2="42" y2="195.368" stroke="rgb(0,0,0)" />
<line x1="47" y1="190.358" x2="44" y2="190.358" stroke="rgb(0,0,0)" />
<line x1="47" y1="185.347" x2="44" y2="185.347" stroke="rgb(0,0,0)" />
<line x1="47" y1="180.337" x2="44" y2="180.337" stroke="rgb(0,0,0)" />
<line x1="47" y1="175.326" x2="44" y2="175.326" stroke="rgb(0,0,0)" />
<text x="-7" y="178" fill="rgb(0,0,0)">
0.08</text>
<line x1="47" y1="170.316" x2="42" y2="170.316" stroke="rgb(0,0,0)" />
<line x1="47" y1="165.305" x2="44" y2="165.305" stroke="rgb(0,0,0)" />
<line x1="47" y1="160.295" x2="44" y2="160.295" stroke="rgb(0,0,0)" />
<line x1="47" y1="155.284" x2="44" y2="155.284" stroke="rgb(0,0,0)" />
<line x1="47" y1="150.274" x2="44" y2="150.274" stroke="rgb(0,0,0)" />
<text x="-6" y="153" fill="rgb(0,0,0)">
0.10</text>
<line x1="47" y1="145.263" x2="42" y2="145.263" stroke="rgb(0,0,0)" />
<line x1="47" y1="140.253" x2="44" y2="140.253" stroke="rgb(0,0,0)" />
<line x1="47" y1="135.242" x2="44" y2="135.242" stroke="rgb(0,0,0)" />
<line x1="47" y1="130.232" x2="44" y2="130.232" stroke="rgb(0,0,0)" />
<line x1="47" y1="125.221" x2="44" y2="125.221" stroke="rgb(0,0,0)" />
<text x="-6" y="128" fill="rgb(0,0,0)">
0.12</text>
<line x1="47" y1="120.21" x2="42" y2="120.21" stroke="rgb(0,0,0)" />
<line x1="47" y1="115.2" x2="44" y2="115.2" stroke="rgb(0,0,0)" />
<line x1="47" y1="110.189" x2="44" y2="110.189" stroke="rgb(0,0,0)" />
<line x1="47" y1="105.179" x2="44" y2="105.179" stroke="rgb(0,0,0)" />
<line x1="47" y1="100.168" x2="44" y2="100.168" stroke="rgb(0,0,0)" />
<text x="-6" y="103" fill="rgb(0,0,0)">
0.14</text>
<line x1="47" y1="95.1579" x2="42" y2="95.1579" stroke="rgb(0,0,0)" />
<line x1="47" y1="90.1474" x2="44" y2="90.1474" stroke="rgb(0,0,0)" />
<line x1="47" y1="85.1369" x2="44" y2="85.1369" stroke="rgb(0,0,0)" />
<line x1="47" y1="80.1263" x2="44" y2="80.1263" stroke="rgb(0,0,0)" />
<line x1="47" y1="75.1158" x2="44" y2="75.1158" stroke="rgb(0,0,0)" />
<text x="-6" y="78" fill="rgb(0,0,0)">
0.16</text>
<line x1="47" y1="70.1053" x2="42" y2="70.1053" stroke="rgb(0,0,0)" />
<line x1="47" y1="65.0948" x2="44" y2="65.0948" stroke="rgb(0,0,0)" />
<line x1="47" y1="60.0843" x2="44" y2="60.0843" stroke="rgb(0,0,0)" />
<line x1="47" y1="55.0738" x2="44" y2="55.0738" stroke="rgb(0,0,0)" />
<line x1="47" y1="50.0632" x2="44" y2="50.0632" stroke="rgb(0,0,0)" />
<text x="-6" y="53" fill="rgb(0,0,0)">
0.18</text>
<line x1="47" y1="45.0527" x2="42" y2="45.0527" stroke="rgb(0,0,0)" />
<line x1="47" y1="40.0422" x2="44" y2="40.0422" stroke="rgb(0,0,0)" />
<line x1="47" y1="35.0317" x2="44" y2="35.0317" stroke="rgb(0,0,0)" />
<line x1="47" y1="30.0212" x2="44" y2="30.0212" stroke="rgb(0,0,0)" />
<line x1="47" y1="25.0107" x2="44" y2="25.0107" stroke="rgb(0,0,0)" />
<text x="-7" y="28" fill="rgb(0,0,0)">
0.20</text>
<line x1="47" y1="20.0001" x2="42" y2="20.0001" stroke="rgb(0,0,0)" />
<text x="70" y="36" fill="rgb(255,0,0)">
plot 0</text>
<text x="70" y="68" fill="rgb(0,0,255)">
plot 1</text>
<clipPath>
<rect x="50" y="20" width="230" height="238" fill="rgb(0,0,0)" />
</clipPath>
<line x1="45" y1="263" x2="55" y2="253" stroke="rgb(255,0,0)" />
<line x1="45" y1="253" x2="55" y2="263" stroke="rgb(255,0,0)" />
<line x1="50" y1="258" x2="73" y2="257.875" stroke="rgb(255,0,0)" />
<line x1="68" y1="262" x2="78" y2="252" stroke="rgb(255,0,0)" />
<line x1="68" y1="252" x2="78" y2="262" stroke="rgb(255,0,0)" />
<line x1="73" y1="257.875" x2="96" y2="257.499" stroke="rgb(255,0,0)" />
<line x1="91" y1="262" x2="101" y2="252" stroke="rgb(255,0,0)" />
<line x1="91" y1="252" x2="101" y2="262" stroke="rgb(255,0,0)" />
<line x1="96" y1="257.499" x2="119" y2="256.873" stroke="rgb(255,0,0)" />
<line x1="114" y1="261" x2="124" y2="251" stroke="rgb(255,0,0)" />
<line x1="114" y1="251" x2="124" y2="261" stroke="rgb(255,0,0)" />
<line x1="119" y1="256.873" x2="142" y2="255.996" stroke="rgb(255,0,0)" />
<line x1="137" y1="260" x2="147" y2="250" stroke="rgb(255,0,0)" />
<line x1="137" y1="250" x2="147" y2="260" stroke="rgb(255,0,0)" />
<line x1="142" y1="255.996" x2="165" y2="254.868" stroke="rgb(255,0,0)" />
<line x1="160" y1="259" x2="170" y2="249" stroke="rgb(255,0,0)" />
<line x1="160" y1="249" x2="170" y2="259" stroke="rgb(255,0,0)" />
<line x1="165" y1="254.868" x2="188" y2="253.491" stroke="rgb(255,0,0)" />
<line x1="183" y1="258" x2="193" y2="248" stroke="rgb(255,0,0)" />
<line x1="183" y1="248" x2="193" y2="258" stroke="rgb(255,0,0)" />
<line x1="188" y1="253.491" x2="211" y2="251.862" stroke="rgb(255,0,0)" />
<line x1="206" y1="256" x2="216" y2="246" stroke="rgb(255,0,0)" />
<line x1="206" y1="246" x2="216" y2="256" stroke="rgb(255,0,0)" />
<line x1="211" y1="251.862" x2="234" y2="249.983" stroke="rgb(255,0,0)" />
<line x1="229" y1="254" x2="239" y2="244" stroke="rgb(255,0,0)" />
<line x1="229" y1="244" x2="239" y2="254" stroke="rgb(255,0,0)" />
<line x1="234" y1="249.983" x2="257" y2="247.854" stroke="rgb(255,0,0)" />
<line x1="252" y1="252" x2="262" y2="242" stroke="rgb(255,0,0)" />
<line x1="252" y1="242" x2="262" y2="252" stroke="rgb(255,0,0)" />
<line x1="257" y1="247.854" x2="280" y2="245.474" stroke="rgb(255,0,0)" />
<line x1="275" y1="250" x2="285" y2="240" stroke="rgb(255,0,0)" />
<line x1="275" y1="240" x2="285" y2="250" stroke="rgb(255,0,0)" />
<line x1="45" y1="24" x2="55" y2="14" stroke="rgb(0,0,255)" />
<line x1="45" y1="14" x2="55" y2="24" stroke="rgb(0,0,255)" />
<line x1="68" y1="25" x2="78" y2="15" stroke="rgb(0,0,255)" />
<line x1="68" y1="15" x2="78" y2="25" stroke="rgb(0,0,255)" />
<line x1="91" y1="25" x2="101" y2="15" stroke="rgb(0,0,255)" />
<line x1="91" y1="15" x2="101" y2="25" stroke="rgb(0,0,255)" />
<line x1="114" y1="26" x2="124" y2="16" stroke="rgb(0,0,255)" />
<line x1="114" y1="16" x2="124" y2="26" stroke="rgb(0,0,255)" />
<line x1="137" y1="27" x2="147" y2="17" stroke="rgb(0,0,255)" />
<line x1="137" y1="17" x2="147" y2="27" stroke="rgb(0,0,255)" />
<line x1="160" y1="28" x2="170" y2="18" stroke="rgb(0,0,255)" />
<line x1="160" y1="18" x2="170" y2="28" stroke="rgb(0,0,255)" />
<line x1="183" y1="29" x2="193" y2="19" stroke="rgb(0,0,255)" />
<line x1="183" y1="19" x2="193" y2="29" stroke="rgb(0,0,255)" />
<line x1="206" y1="31" x2="216" y2="21" stroke="rgb(0,0,255)" />
<line x1="206" y1="21" x2="216" y2="31" stroke="rgb(0,0,255)" />
<line x1="229" y1="33" x2="239" y2="23" stroke="rgb(0,0,255)" />
<line x1="229" y1="23" x2="239" y2="33" stroke="rgb(0,0,255)" />
<line x1="252" y1="35" x2="262" y2="25" stroke="rgb(0,0,255)" />
<line x1="252" y1="25" x2="262" y2="35" stroke="rgb(0,0,255)" />
<line x1="275" y1="37" x2="285" y2="27" stroke="rgb(0,0,255)" />
<line x1="275" y1="27" x2="285" y2="37" stroke="rgb(0,0,255)" />
</svg>

